<?xml version="1.0" encoding="UTF-8" standalone="no"?>
<!-- Created with Inkscape (http://www.inkscape.org/) -->

<svg
   width="452.00174"
   height="560.25757"
   id="svg2"
   version="1.1"
   inkscape:version="1.3.2 (091e20e, 2023-11-25, custom)"
   sodipodi:docname="logo_oemof_10_years_light.svg"
   inkscape:export-filename="/home/leppi/Dokumente/ZNES/Oemof/oemof_logo/done/logo_oemof_vec_inkscape_mid_300DPI.png"
   inkscape:export-xdpi="300"
   inkscape:export-ydpi="300"
   xmlns:inkscape="http://www.inkscape.org/namespaces/inkscape"
   xmlns:sodipodi="http://sodipodi.sourceforge.net/DTD/sodipodi-0.dtd"
   xmlns:xlink="http://www.w3.org/1999/xlink"
   xmlns="http://www.w3.org/2000/svg"
   xmlns:svg="http://www.w3.org/2000/svg"
   xmlns:rdf="http://www.w3.org/1999/02/22-rdf-syntax-ns#"
   xmlns:cc="http://creativecommons.org/ns#"
   xmlns:dc="http://purl.org/dc/elements/1.1/">
  <defs
     id="defs4">
    <rect
       x="284.73517"
       y="152.08408"
       width="252.10138"
       height="101.45519"
       id="rect15" />
    <inkscape:path-effect
       effect="spiro"
       id="path-effect4646"
       is_visible="true"
       lpeversion="0" />
    <inkscape:path-effect
       effect="spiro"
       id="path-effect4642"
       is_visible="true"
       lpeversion="0" />
    <inkscape:path-effect
       effect="spiro"
       id="path-effect4638"
       is_visible="true"
       lpeversion="0" />
    <inkscape:path-effect
       effect="spiro"
       id="path-effect3273"
       is_visible="true"
       lpeversion="0" />
    <inkscape:path-effect
       effect="spiro"
       id="path-effect3265"
       is_visible="true"
       lpeversion="0" />
    <inkscape:path-effect
       effect="spiro"
       id="path-effect3261"
       is_visible="true"
       lpeversion="0" />
    <inkscape:path-effect
       effect="spiro"
       id="path-effect3257"
       is_visible="true"
       lpeversion="0" />
    <linearGradient
       id="linearGradient3960">
      <stop
         id="stop3972"
         offset="0"
         style="stop-color:#55d400;stop-opacity:0.74901961;" />
      <stop
         id="stop3970"
         offset="0.5"
         style="stop-color:#55d400;stop-opacity:0.49803922;" />
      <stop
         style="stop-color:#39d400;stop-opacity:0.24705882;"
         offset="0.75"
         id="stop3976" />
      <stop
         id="stop3980"
         offset="0.875"
         style="stop-color:#94d400;stop-opacity:0.24705882;" />
      <stop
         id="stop3978"
         offset="1"
         style="stop-color:#efd400;stop-opacity:0.24705882;" />
    </linearGradient>
    <marker
       inkscape:stockid="Arrow2Lstart"
       orient="auto"
       refY="0"
       refX="0"
       id="Arrow2Lstart"
       style="overflow:visible">
      <path
         id="path4366"
         style="fill-rule:evenodd;stroke-width:0.625;stroke-linejoin:round"
         d="M 8.7185878,4.0337352 -2.2072895,0.01601326 8.7185884,-4.0017078 c -1.7454984,2.3720609 -1.7354408,5.6174519 -6e-7,8.035443 z"
         transform="matrix(1.1,0,0,1.1,1.1,0)"
         inkscape:connector-curvature="0" />
    </marker>
    <marker
       inkscape:stockid="EmptyDiamondL"
       orient="auto"
       refY="0"
       refX="0"
       id="EmptyDiamondL"
       style="overflow:visible">
      <path
         id="path4454"
         d="M 0,-7.0710768 -7.0710894,0 0,7.0710589 7.0710462,0 Z"
         style="fill:#ffffff;fill-rule:evenodd;stroke:#000000;stroke-width:1pt"
         transform="scale(0.8)"
         inkscape:connector-curvature="0" />
    </marker>
    <marker
       inkscape:stockid="DiamondSstart"
       orient="auto"
       refY="0"
       refX="0"
       id="DiamondSstart"
       style="overflow:visible">
      <path
         id="path4442"
         d="M 0,-7.0710768 -7.0710894,0 0,7.0710589 7.0710462,0 Z"
         style="fill-rule:evenodd;stroke:#000000;stroke-width:1pt"
         transform="matrix(0.2,0,0,0.2,1.2,0)"
         inkscape:connector-curvature="0" />
    </marker>
    <marker
       inkscape:stockid="Arrow1Lstart"
       orient="auto"
       refY="0"
       refX="0"
       id="Arrow1Lstart"
       style="overflow:visible">
      <path
         id="path4348"
         d="M 0,0 5,-5 -12.5,0 5,5 Z"
         style="fill-rule:evenodd;stroke:#000000;stroke-width:1pt"
         transform="matrix(0.8,0,0,0.8,10,0)"
         inkscape:connector-curvature="0" />
    </marker>
    <marker
       inkscape:stockid="SquareL"
       orient="auto"
       refY="0"
       refX="0"
       id="SquareL"
       style="overflow:visible">
      <path
         id="path4418"
         d="M -5,-5 V 5 H 5 V -5 Z"
         style="fill-rule:evenodd;stroke:#000000;stroke-width:1pt"
         transform="scale(0.8)"
         inkscape:connector-curvature="0" />
    </marker>
    <inkscape:perspective
       sodipodi:type="inkscape:persp3d"
       inkscape:vp_x="-105.05586 : -5.5750416 : 1"
       inkscape:vp_y="0 : 1000 : 0"
       inkscape:vp_z="1150 : 475.25757 : 1"
       inkscape:persp3d-origin="575 : 408.5909 : 1"
       id="perspective4087" />
    <radialGradient
       r="97.496925"
       fy="188.21428"
       fx="236.78572"
       cy="188.21428"
       cx="236.78572"
       gradientTransform="translate(-139.2888,-90.7174)"
       gradientUnits="userSpaceOnUse"
       id="radialGradient3013"
       xlink:href="#linearGradient3684-76"
       inkscape:collect="always" />
    <radialGradient
       r="97.496925"
       fy="188.21428"
       fx="236.78572"
       cy="188.21428"
       cx="236.78572"
       gradientTransform="translate(-90.4365,1338.3028)"
       gradientUnits="userSpaceOnUse"
       id="radialGradient3004"
       xlink:href="#linearGradient3684-76"
       inkscape:collect="always" />
    <linearGradient
       id="linearGradient3684-76">
      <stop
         offset="0"
         style="stop-color:#000000;stop-opacity:1"
         id="stop3686-14" />
      <stop
         offset="0.89795917"
         style="stop-color:#000000;stop-opacity:0.86666667"
         id="stop3692-23" />
      <stop
         offset="1"
         style="stop-color:#000000;stop-opacity:0"
         id="stop3688-2" />
    </linearGradient>
    <radialGradient
       gradientTransform="translate(-90.4365,1338.3028)"
       gradientUnits="userSpaceOnUse"
       xlink:href="#linearGradient3684-76"
       id="radialGradient4894"
       fy="188.21428"
       fx="236.78572"
       r="97.496925"
       cy="188.21428"
       cx="236.78572" />
    <inkscape:path-effect
       effect="spiro"
       id="path-effect3273-8"
       is_visible="true"
       lpeversion="0" />
    <inkscape:path-effect
       effect="spiro"
       id="path-effect3273-3"
       is_visible="true"
       lpeversion="0" />
    <inkscape:path-effect
       effect="spiro"
       id="path-effect3273-3-6"
       is_visible="true"
       lpeversion="0" />
    <inkscape:path-effect
       effect="spiro"
       id="path-effect3273-3-0"
       is_visible="true"
       lpeversion="0" />
    <inkscape:path-effect
       effect="spiro"
       id="path-effect3273-3-0-5"
       is_visible="true"
       lpeversion="0" />
    <inkscape:path-effect
       effect="spiro"
       id="path-effect3273-3-0-6"
       is_visible="true"
       lpeversion="0" />
    <inkscape:path-effect
       effect="spiro"
       id="path-effect3273-2"
       is_visible="true"
       lpeversion="0" />
    <inkscape:path-effect
       effect="spiro"
       id="path-effect3273-8-0"
       is_visible="true"
       lpeversion="0" />
    <inkscape:path-effect
       effect="spiro"
       id="path-effect3273-3-1"
       is_visible="true"
       lpeversion="0" />
    <inkscape:path-effect
       effect="spiro"
       id="path-effect3273-3-6-7"
       is_visible="true"
       lpeversion="0" />
    <inkscape:path-effect
       effect="spiro"
       id="path-effect3273-3-0-8"
       is_visible="true"
       lpeversion="0" />
    <inkscape:path-effect
       effect="spiro"
       id="path-effect3273-3-0-5-1"
       is_visible="true"
       lpeversion="0" />
    <inkscape:path-effect
       effect="spiro"
       id="path-effect3273-3-0-6-5"
       is_visible="true"
       lpeversion="0" />
    <ellipse
       transform="matrix(-1.655217,1.5156218,-1.8633661,-2.0349941,554.10899,812.95323)"
       id="path3981-2-1-6-7-5-0-3-3-9"
       style="display:inline;fill:none;stroke:none"
       cx="-36.96954"
       cy="-68.571419"
       rx="43.030457"
       ry="35" />
    <inkscape:path-effect
       effect="spiro"
       id="path-effect3273-9"
       is_visible="true"
       lpeversion="0" />
    <inkscape:path-effect
       effect="spiro"
       id="path-effect3273-8-3"
       is_visible="true"
       lpeversion="0" />
    <inkscape:path-effect
       effect="spiro"
       id="path-effect3273-3-2"
       is_visible="true"
       lpeversion="0" />
    <inkscape:path-effect
       effect="spiro"
       id="path-effect3273-3-6-0"
       is_visible="true"
       lpeversion="0" />
    <inkscape:path-effect
       effect="spiro"
       id="path-effect3273-3-0-1"
       is_visible="true"
       lpeversion="0" />
    <inkscape:path-effect
       effect="spiro"
       id="path-effect3273-3-0-5-8"
       is_visible="true"
       lpeversion="0" />
    <inkscape:path-effect
       effect="spiro"
       id="path-effect3273-3-0-6-3"
       is_visible="true"
       lpeversion="0" />
  </defs>
  <sodipodi:namedview
     id="base"
     pagecolor="#ffffff"
     bordercolor="#666666"
     borderopacity="1.0"
     inkscape:pageopacity="0.0"
     inkscape:pageshadow="2"
     inkscape:zoom="1"
     inkscape:cx="318"
     inkscape:cy="157.5"
     inkscape:document-units="px"
     inkscape:current-layer="layer1"
     showgrid="false"
     inkscape:window-width="2400"
     inkscape:window-height="1271"
     inkscape:window-x="2391"
     inkscape:window-y="-9"
     inkscape:window-maximized="1"
     showguides="true"
     inkscape:guide-bbox="true"
     width="1150px"
     inkscape:snap-center="true"
     inkscape:showpageshadow="2"
     inkscape:pagecheckerboard="0"
     inkscape:deskcolor="#d1d1d1" />
  <metadata
     id="metadata7">
    <rdf:RDF>
      <cc:Work
         rdf:about="">
        <dc:format>image/svg+xml</dc:format>
        <dc:type
           rdf:resource="http://purl.org/dc/dcmitype/StillImage" />
      </cc:Work>
    </rdf:RDF>
  </metadata>
  <g
     inkscape:label="Ebene 1"
     inkscape:groupmode="layer"
     id="layer1"
     transform="translate(-1484.1488,-1265.9406)"
     style="display:inline">
    <text
       xml:space="preserve"
       style="font-style:normal;font-weight:normal;font-size:98.6369px;line-height:1.25;font-family:sans-serif;letter-spacing:0px;word-spacing:0px;display:inline;fill:#b3b3b3;fill-opacity:1;stroke:none;stroke-width:0.513736"
       x="1259.6278"
       y="-1858.7206"
       id="text710-3"
       transform="rotate(90)"><tspan
         sodipodi:role="line"
         id="tspan708-37"
         x="1259.6278"
         y="-1858.7206"
         style="font-style:normal;font-variant:normal;font-weight:normal;font-stretch:normal;font-size:98.6369px;font-family:FreeSans;-inkscape-font-specification:FreeSans;stroke-width:0.513736">[ˌænɪˈvɜːsəri]</tspan></text>
    <g
       id="g1">
      <path
         d="m 1666.0577,1388.8567 h 2.7747 v 2.7746 h -2.7747 z m 2.7747,0 h 2.7744 v 2.7746 h -2.7744 z m 2.7744,0 h 2.7745 v 2.7746 h -2.7745 z m 2.7745,0 h 2.7746 v 2.7746 h -2.7746 z m 2.7746,0 h 2.7744 v 2.7746 h -2.7744 z m 2.7744,0 h 2.7745 v 2.7746 h -2.7745 z m 2.7745,0 h 2.7744 v 2.7746 h -2.7744 z m 8.3235,0 h 2.7745 v 2.7746 h -2.7745 z m 2.7745,0 h 2.7746 v 2.7746 h -2.7746 z m 2.7746,0 h 2.7745 v 2.7746 h -2.7745 z m 5.5489,0 h 2.7745 v 2.7746 h -2.7745 z m 5.5491,0 h 2.7745 v 2.7746 h -2.7745 z m 8.3236,0 h 2.7744 v 2.7746 h -2.7744 z m 2.7744,0 h 2.7745 v 2.7746 h -2.7745 z m 2.7745,0 h 2.7744 v 2.7746 h -2.7744 z m 2.7744,0 h 2.7746 v 2.7746 h -2.7746 z m 2.7746,0 h 2.7745 v 2.7746 h -2.7745 z m 2.7745,0 h 2.7744 v 2.7746 h -2.7744 z m 2.7744,0 h 2.7745 v 2.7746 h -2.7745 z m -66.5881,2.7746 h 2.7747 v 2.7745 h -2.7747 z m 16.6471,0 h 2.7744 v 2.7745 h -2.7744 z m 11.098,0 h 2.7746 v 2.7745 h -2.7746 z m 8.3235,0 h 2.7745 v 2.7745 h -2.7745 z m 2.7745,0 h 2.7746 v 2.7745 h -2.7746 z m 2.7746,0 h 2.7745 v 2.7745 h -2.7745 z m 2.7745,0 h 2.7744 v 2.7745 h -2.7744 z m 5.5491,0 h 2.7744 v 2.7745 h -2.7744 z m 16.6468,0 h 2.7745 v 2.7745 h -2.7745 z m -66.5881,2.7745 h 2.7747 v 2.7746 h -2.7747 z m 5.5491,0 h 2.7745 v 2.7746 h -2.7745 z m 2.7745,0 h 2.7746 v 2.7746 h -2.7746 z m 2.7746,0 h 2.7744 v 2.7746 h -2.7744 z m 5.5489,0 h 2.7744 v 2.7746 h -2.7744 z m 5.5491,0 h 2.7744 v 2.7746 h -2.7744 z m 5.5489,0 h 2.7746 v 2.7746 h -2.7746 z m 2.7746,0 h 2.7745 v 2.7746 h -2.7745 z m 2.7745,0 h 2.7744 v 2.7746 h -2.7744 z m 2.7744,0 h 2.7745 v 2.7746 h -2.7745 z m 8.3236,0 h 2.7744 v 2.7746 h -2.7744 z m 5.5491,0 h 2.7744 v 2.7746 h -2.7744 z m 5.5489,0 h 2.7744 v 2.7746 h -2.7744 z m 2.7744,0 h 2.7746 v 2.7746 h -2.7746 z m 2.7746,0 h 2.7745 v 2.7746 h -2.7745 z m 5.5489,0 h 2.7745 v 2.7746 h -2.7745 z m -66.5881,2.7746 h 2.7747 v 2.7744 h -2.7747 z m 5.5491,0 h 2.7745 v 2.7744 h -2.7745 z m 2.7745,0 h 2.7746 v 2.7744 h -2.7746 z m 2.7746,0 h 2.7744 v 2.7744 h -2.7744 z m 5.5489,0 h 2.7744 v 2.7744 h -2.7744 z m 5.5491,0 h 2.7744 v 2.7744 h -2.7744 z m 2.7744,0 h 2.7745 v 2.7744 h -2.7745 z m 2.7745,0 h 2.7744 v 2.7744 h -2.7744 z m 11.098,0 h 2.7746 v 2.7744 h -2.7746 z m 2.7746,0 h 2.7745 v 2.7744 h -2.7745 z m 8.3236,0 h 2.7744 v 2.7744 h -2.7744 z m 5.5489,0 h 2.7744 v 2.7744 h -2.7744 z m 2.7744,0 h 2.7746 v 2.7744 h -2.7746 z m 2.7746,0 h 2.7745 v 2.7744 h -2.7745 z m 5.5489,0 h 2.7745 v 2.7744 h -2.7745 z m -66.5881,2.7744 h 2.7747 v 2.7745 h -2.7747 z m 5.5491,0 h 2.7745 v 2.7745 h -2.7745 z m 2.7745,0 h 2.7746 v 2.7745 h -2.7746 z m 2.7746,0 h 2.7744 v 2.7745 h -2.7744 z m 5.5489,0 h 2.7744 v 2.7745 h -2.7744 z m 5.5491,0 h 2.7744 v 2.7745 h -2.7744 z m 2.7744,0 h 2.7745 v 2.7745 h -2.7745 z m 2.7745,0 h 2.7744 v 2.7745 h -2.7744 z m 2.7744,0 h 2.7747 v 2.7745 h -2.7747 z m 2.7747,0 h 2.7744 v 2.7745 h -2.7744 z m 11.098,0 h 2.7744 v 2.7745 h -2.7744 z m 5.5491,0 h 2.7744 v 2.7745 h -2.7744 z m 5.5489,0 h 2.7744 v 2.7745 h -2.7744 z m 2.7744,0 h 2.7746 v 2.7745 h -2.7746 z m 2.7746,0 h 2.7745 v 2.7745 h -2.7745 z m 5.5489,0 h 2.7745 v 2.7745 h -2.7745 z m -66.5881,2.7745 h 2.7747 v 2.7744 h -2.7747 z m 16.6471,0 h 2.7744 v 2.7744 h -2.7744 z m 5.5491,0 h 2.7744 v 2.7744 h -2.7744 z m 5.5489,0 h 2.7744 v 2.7744 h -2.7744 z m 2.7744,0 h 2.7747 v 2.7744 h -2.7747 z m 11.0982,0 h 2.7745 v 2.7744 h -2.7745 z m 8.3236,0 h 2.7744 v 2.7744 h -2.7744 z m 16.6468,0 h 2.7745 v 2.7744 h -2.7745 z m -66.5881,2.7744 h 2.7747 v 2.7747 h -2.7747 z m 2.7747,0 h 2.7744 v 2.7747 h -2.7744 z m 2.7744,0 h 2.7745 v 2.7747 h -2.7745 z m 2.7745,0 h 2.7746 v 2.7747 h -2.7746 z m 2.7746,0 h 2.7744 v 2.7747 h -2.7744 z m 2.7744,0 h 2.7745 v 2.7747 h -2.7745 z m 2.7745,0 h 2.7744 v 2.7747 h -2.7744 z m 5.5491,0 h 2.7744 v 2.7747 h -2.7744 z m 5.5489,0 h 2.7744 v 2.7747 h -2.7744 z m 5.5491,0 h 2.7744 v 2.7747 h -2.7744 z m 5.5489,0 h 2.7746 v 2.7747 h -2.7746 z m 5.5491,0 h 2.7744 v 2.7747 h -2.7744 z m 5.5491,0 h 2.7744 v 2.7747 h -2.7744 z m 2.7744,0 h 2.7745 v 2.7747 h -2.7745 z m 2.7745,0 h 2.7744 v 2.7747 h -2.7744 z m 2.7744,0 h 2.7746 v 2.7747 h -2.7746 z m 2.7746,0 h 2.7745 v 2.7747 h -2.7745 z m 2.7745,0 h 2.7744 v 2.7747 h -2.7744 z m 2.7744,0 h 2.7745 v 2.7747 h -2.7745 z m -44.3919,2.7747 h 2.7744 v 2.7744 h -2.7744 z m 2.7744,0 h 2.7745 v 2.7744 h -2.7745 z m 13.8725,0 h 2.7746 v 2.7744 h -2.7746 z m -38.8431,2.7744 h 2.7747 v 2.7745 h -2.7747 z m 5.5491,0 h 2.7745 v 2.7745 h -2.7745 z m 2.7745,0 h 2.7744 v 2.7745 h -2.7744 z m 2.7744,0 h 2.7746 v 2.7745 h -2.7746 z m 2.7746,0 h 2.7745 v 2.7745 h -2.7745 z m 2.7745,0 h 2.7744 v 2.7745 h -2.7744 z m 11.098,0 h 2.7744 v 2.7745 h -2.7744 z m 5.5491,0 h 2.7744 v 2.7745 h -2.7744 z m 8.3235,0 h 2.7745 v 2.7745 h -2.7745 z m 2.7745,0 h 2.7744 v 2.7745 h -2.7744 z m 5.5491,0 h 2.7744 v 2.7745 h -2.7744 z m 2.7744,0 h 2.7745 v 2.7745 h -2.7745 z m 2.7745,0 h 2.7744 v 2.7745 h -2.7744 z m 2.7744,0 h 2.7746 v 2.7745 h -2.7746 z m 2.7746,0 h 2.7745 v 2.7745 h -2.7745 z m -61.0392,2.7745 h 2.7747 v 2.7746 h -2.7747 z m 2.7747,0 h 2.7744 v 2.7746 h -2.7744 z m 11.0979,0 h 2.7745 v 2.7746 h -2.7745 z m 8.3236,0 h 2.7744 v 2.7746 h -2.7744 z m 2.7744,0 h 2.7745 v 2.7746 h -2.7745 z m 5.5489,0 h 2.7747 v 2.7746 h -2.7747 z m 5.5491,0 h 2.7745 v 2.7746 h -2.7745 z m 2.7745,0 h 2.7746 v 2.7746 h -2.7746 z m 5.5491,0 h 2.7744 v 2.7746 h -2.7744 z m 8.3235,0 h 2.7745 v 2.7746 h -2.7745 z m 11.098,0 h 2.7744 v 2.7746 h -2.7744 z m -61.039,2.7746 h 2.7744 v 2.7745 h -2.7744 z m 5.5489,0 h 2.7744 v 2.7745 h -2.7744 z m 2.7744,0 h 2.7746 v 2.7745 h -2.7746 z m 2.7746,0 h 2.7745 v 2.7745 h -2.7745 z m 2.7745,0 h 2.7744 v 2.7745 h -2.7744 z m 19.4215,0 h 2.7745 v 2.7745 h -2.7745 z m 2.7745,0 h 2.7746 v 2.7745 h -2.7746 z m 2.7746,0 h 2.7745 v 2.7745 h -2.7745 z m 2.7745,0 h 2.7744 v 2.7745 h -2.7744 z m 2.7744,0 h 2.7747 v 2.7745 h -2.7747 z m 2.7747,0 h 2.7744 v 2.7745 h -2.7744 z m 2.7744,0 h 2.7745 v 2.7745 h -2.7745 z m 2.7745,0 h 2.7744 v 2.7745 h -2.7744 z m 2.7744,0 h 2.7746 v 2.7745 h -2.7746 z m 5.5491,0 h 2.7744 v 2.7745 h -2.7744 z m 2.7744,0 h 2.7745 v 2.7745 h -2.7745 z m -66.5881,2.7745 h 2.7747 v 2.7744 h -2.7747 z m 2.7747,0 h 2.7744 v 2.7744 h -2.7744 z m 11.0979,0 h 2.7745 v 2.7744 h -2.7745 z m 11.098,0 h 2.7745 v 2.7744 h -2.7745 z m 5.5489,0 h 2.7747 v 2.7744 h -2.7747 z m 5.5491,0 h 2.7745 v 2.7744 h -2.7745 z m 8.3236,0 h 2.7744 v 2.7744 h -2.7744 z m 2.7744,0 h 2.7747 v 2.7744 h -2.7747 z m 2.7747,0 h 2.7744 v 2.7744 h -2.7744 z m 2.7744,0 h 2.7745 v 2.7744 h -2.7745 z m 2.7745,0 h 2.7744 v 2.7744 h -2.7744 z m 11.0979,0 h 2.7745 v 2.7744 h -2.7745 z m -49.941,2.7744 h 2.7744 v 2.7745 h -2.7744 z m 2.7744,0 h 2.7747 v 2.7745 h -2.7747 z m 2.7747,0 h 2.7744 v 2.7745 h -2.7744 z m 5.5489,0 h 2.7744 v 2.7745 h -2.7744 z m 5.5491,0 h 2.7744 v 2.7745 h -2.7744 z m 5.5489,0 h 2.7746 v 2.7745 h -2.7746 z m 8.3235,0 h 2.7747 v 2.7745 h -2.7747 z m 2.7747,0 h 2.7744 v 2.7745 h -2.7744 z m 5.5489,0 h 2.7744 v 2.7745 h -2.7744 z m 5.549,0 h 2.7745 v 2.7745 h -2.7745 z m 2.7745,0 h 2.7744 v 2.7745 h -2.7744 z m 2.7744,0 h 2.7745 v 2.7745 h -2.7745 z m -66.5881,2.7745 h 2.7747 v 2.7746 h -2.7747 z m 5.5491,0 h 2.7745 v 2.7746 h -2.7745 z m 5.5489,0 h 2.7746 v 2.7746 h -2.7746 z m 13.8726,0 h 2.7745 v 2.7746 h -2.7745 z m 2.7745,0 h 2.7744 v 2.7746 h -2.7744 z m 16.6471,0 h 2.7744 v 2.7746 h -2.7744 z m 8.3235,0 h 2.7745 v 2.7746 h -2.7745 z m 5.5489,0 h 2.7746 v 2.7746 h -2.7746 z m 5.5491,0 h 2.7744 v 2.7746 h -2.7744 z m -63.8137,2.7746 h 2.7747 v 2.7745 h -2.7747 z m 8.3236,0 h 2.7744 v 2.7745 h -2.7744 z m 8.3235,0 h 2.7744 v 2.7745 h -2.7744 z m 2.7744,0 h 2.7747 v 2.7745 h -2.7747 z m 2.7747,0 h 2.7744 v 2.7745 h -2.7744 z m 2.7744,0 h 2.7745 v 2.7745 h -2.7745 z m 5.5489,0 h 2.7747 v 2.7745 h -2.7747 z m 2.7747,0 h 2.7744 v 2.7745 h -2.7744 z m 8.3235,0 h 2.7745 v 2.7745 h -2.7745 z m 5.5489,0 h 2.7747 v 2.7745 h -2.7747 z m 5.5491,0 h 2.7745 v 2.7745 h -2.7745 z m 2.7745,0 h 2.7744 v 2.7745 h -2.7744 z m 2.7744,0 h 2.7746 v 2.7745 h -2.7746 z m 5.5491,0 h 2.7744 v 2.7745 h -2.7744 z m 2.7744,0 h 2.7745 v 2.7745 h -2.7745 z m -66.5881,2.7745 h 2.7747 v 2.7744 h -2.7747 z m 5.5491,0 h 2.7745 v 2.7744 h -2.7745 z m 19.4215,0 h 2.7745 v 2.7744 h -2.7745 z m 5.5489,0 h 2.7747 v 2.7744 h -2.7747 z m 8.3236,0 h 2.7746 v 2.7744 h -2.7746 z m 5.5491,0 h 2.7744 v 2.7744 h -2.7744 z m 2.7744,0 h 2.7747 v 2.7744 h -2.7747 z m 2.7747,0 h 2.7744 v 2.7744 h -2.7744 z m 2.7744,0 h 2.7745 v 2.7744 h -2.7745 z m 2.7745,0 h 2.7744 v 2.7744 h -2.7744 z m 11.0979,0 h 2.7745 v 2.7744 h -2.7745 z m -66.5881,2.7744 h 2.7747 v 2.7747 h -2.7747 z m 8.3236,0 h 2.7744 v 2.7747 h -2.7744 z m 2.7744,0 h 2.7746 v 2.7747 h -2.7746 z m 5.5491,0 h 2.7744 v 2.7747 h -2.7744 z m 2.7744,0 h 2.7747 v 2.7747 h -2.7747 z m 2.7747,0 h 2.7744 v 2.7747 h -2.7744 z m 2.7744,0 h 2.7745 v 2.7747 h -2.7745 z m 2.7745,0 h 2.7744 v 2.7747 h -2.7744 z m 2.7744,0 h 2.7747 v 2.7747 h -2.7747 z m 13.8727,0 h 2.7744 v 2.7747 h -2.7744 z m 2.7744,0 h 2.7747 v 2.7747 h -2.7747 z m 2.7747,0 h 2.7744 v 2.7747 h -2.7744 z m 2.7744,0 h 2.7745 v 2.7747 h -2.7745 z m 2.7745,0 h 2.7744 v 2.7747 h -2.7744 z m 5.549,0 h 2.7745 v 2.7747 h -2.7745 z m -38.843,2.7747 h 2.7744 v 2.7744 h -2.7744 z m 5.5489,0 h 2.7744 v 2.7744 h -2.7744 z m 5.5491,0 h 2.7744 v 2.7744 h -2.7744 z m 2.7744,0 h 2.7745 v 2.7744 h -2.7745 z m 2.7745,0 h 2.7746 v 2.7744 h -2.7746 z m 2.7746,0 h 2.7745 v 2.7744 h -2.7745 z m 2.7745,0 h 2.7744 v 2.7744 h -2.7744 z m 11.098,0 h 2.7744 v 2.7744 h -2.7744 z m 2.7744,0 h 2.7746 v 2.7744 h -2.7746 z m -58.2646,2.7744 h 2.7747 v 2.7745 h -2.7747 z m 2.7747,0 h 2.7744 v 2.7745 h -2.7744 z m 2.7744,0 h 2.7745 v 2.7745 h -2.7745 z m 2.7745,0 h 2.7744 v 2.7745 h -2.7744 z m 2.7744,0 h 2.7746 v 2.7745 h -2.7746 z m 2.7746,0 h 2.7745 v 2.7745 h -2.7745 z m 2.7745,0 h 2.7744 v 2.7745 h -2.7744 z m 8.3235,0 h 2.7745 v 2.7745 h -2.7745 z m 11.098,0 h 2.7745 v 2.7745 h -2.7745 z m 2.7745,0 h 2.7746 v 2.7745 h -2.7746 z m 5.5491,0 h 2.7744 v 2.7745 h -2.7744 z m 5.5491,0 h 2.7744 v 2.7745 h -2.7744 z m 5.5489,0 h 2.7744 v 2.7745 h -2.7744 z m 5.549,0 h 2.7745 v 2.7745 h -2.7745 z m 2.7745,0 h 2.7744 v 2.7745 h -2.7744 z m 2.7744,0 h 2.7745 v 2.7745 h -2.7745 z m -66.5881,2.7745 h 2.7747 v 2.7746 h -2.7747 z m 16.6471,0 h 2.7744 v 2.7746 h -2.7744 z m 5.5491,0 h 2.7744 v 2.7746 h -2.7744 z m 2.7744,0 h 2.7745 v 2.7746 h -2.7745 z m 2.7745,0 h 2.7744 v 2.7746 h -2.7744 z m 5.5491,0 h 2.7744 v 2.7746 h -2.7744 z m 2.7744,0 h 2.7745 v 2.7746 h -2.7745 z m 5.5491,0 h 2.7745 v 2.7746 h -2.7745 z m 2.7745,0 h 2.7744 v 2.7746 h -2.7744 z m 11.098,0 h 2.7744 v 2.7746 h -2.7744 z m 2.7744,0 h 2.7746 v 2.7746 h -2.7746 z m 5.5491,0 h 2.7744 v 2.7746 h -2.7744 z m 2.7744,0 h 2.7745 v 2.7746 h -2.7745 z m -66.5881,2.7746 h 2.7747 v 2.7744 h -2.7747 z m 5.5491,0 h 2.7745 v 2.7744 h -2.7745 z m 2.7745,0 h 2.7744 v 2.7744 h -2.7744 z m 2.7744,0 h 2.7746 v 2.7744 h -2.7746 z m 5.5491,0 h 2.7744 v 2.7744 h -2.7744 z m 5.5491,0 h 2.7744 v 2.7744 h -2.7744 z m 2.7744,0 h 2.7745 v 2.7744 h -2.7745 z m 2.7745,0 h 2.7744 v 2.7744 h -2.7744 z m 5.5491,0 h 2.7744 v 2.7744 h -2.7744 z m 5.5489,0 h 2.7746 v 2.7744 h -2.7746 z m 2.7746,0 h 2.7745 v 2.7744 h -2.7745 z m 2.7745,0 h 2.7744 v 2.7744 h -2.7744 z m 2.7744,0 h 2.7747 v 2.7744 h -2.7747 z m 2.7747,0 h 2.7744 v 2.7744 h -2.7744 z m 2.7744,0 h 2.7745 v 2.7744 h -2.7745 z m 2.7745,0 h 2.7744 v 2.7744 h -2.7744 z m 5.549,0 h 2.7745 v 2.7744 h -2.7745 z m 5.5489,0 h 2.7745 v 2.7744 h -2.7745 z m -66.5881,2.7744 h 2.7747 v 2.7745 h -2.7747 z m 5.5491,0 h 2.7745 v 2.7745 h -2.7745 z m 2.7745,0 h 2.7744 v 2.7745 h -2.7744 z m 2.7744,0 h 2.7746 v 2.7745 h -2.7746 z m 5.5491,0 h 2.7744 v 2.7745 h -2.7744 z m 5.5491,0 h 2.7744 v 2.7745 h -2.7744 z m 2.7744,0 h 2.7745 v 2.7745 h -2.7745 z m 2.7745,0 h 2.7744 v 2.7745 h -2.7744 z m 13.8726,0 h 2.7745 v 2.7745 h -2.7745 z m 2.7745,0 h 2.7744 v 2.7745 h -2.7744 z m 2.7744,0 h 2.7747 v 2.7745 h -2.7747 z m 2.7747,0 h 2.7744 v 2.7745 h -2.7744 z m 5.5489,0 h 2.7744 v 2.7745 h -2.7744 z m 2.7744,0 h 2.7746 v 2.7745 h -2.7746 z m 2.7746,0 h 2.7745 v 2.7745 h -2.7745 z m 2.7745,0 h 2.7744 v 2.7745 h -2.7744 z m 2.7744,0 h 2.7745 v 2.7745 h -2.7745 z m -66.5881,2.7745 h 2.7747 v 2.7744 h -2.7747 z m 5.5491,0 h 2.7745 v 2.7744 h -2.7745 z m 2.7745,0 h 2.7744 v 2.7744 h -2.7744 z m 2.7744,0 h 2.7746 v 2.7744 h -2.7746 z m 5.5491,0 h 2.7744 v 2.7744 h -2.7744 z m 5.5491,0 h 2.7744 v 2.7744 h -2.7744 z m 2.7744,0 h 2.7745 v 2.7744 h -2.7745 z m 5.5489,0 h 2.7747 v 2.7744 h -2.7747 z m 2.7747,0 h 2.7744 v 2.7744 h -2.7744 z m 24.9704,0 h 2.7746 v 2.7744 h -2.7746 z m 2.7746,0 h 2.7745 v 2.7744 h -2.7745 z m 5.5489,0 h 2.7745 v 2.7744 h -2.7745 z m -66.5881,2.7744 h 2.7747 v 2.7747 h -2.7747 z m 16.6471,0 h 2.7744 v 2.7747 h -2.7744 z m 8.3235,0 h 2.7745 v 2.7747 h -2.7745 z m 5.5489,0 h 2.7747 v 2.7747 h -2.7747 z m 8.3236,0 h 2.7746 v 2.7747 h -2.7746 z m 2.7746,0 h 2.7745 v 2.7747 h -2.7745 z m 2.7745,0 h 2.7744 v 2.7747 h -2.7744 z m 2.7744,0 h 2.7747 v 2.7747 h -2.7747 z m 5.5491,0 h 2.7745 v 2.7747 h -2.7745 z m 2.7745,0 h 2.7744 v 2.7747 h -2.7744 z m 2.7744,0 h 2.7746 v 2.7747 h -2.7746 z m 8.3235,0 h 2.7745 v 2.7747 h -2.7745 z m -66.5881,2.7747 h 2.7747 v 2.7744 h -2.7747 z m 2.7747,0 h 2.7744 v 2.7744 h -2.7744 z m 2.7744,0 h 2.7745 v 2.7744 h -2.7745 z m 2.7745,0 h 2.7744 v 2.7744 h -2.7744 z m 2.7744,0 h 2.7746 v 2.7744 h -2.7746 z m 2.7746,0 h 2.7745 v 2.7744 h -2.7745 z m 2.7745,0 h 2.7744 v 2.7744 h -2.7744 z m 5.5491,0 h 2.7744 v 2.7744 h -2.7744 z m 8.3233,0 h 2.7747 v 2.7744 h -2.7747 z m 16.6471,0 h 2.7747 v 2.7744 h -2.7747 z m 5.5491,0 h 2.7745 v 2.7744 h -2.7745 z m 2.7745,0 h 2.7744 v 2.7744 h -2.7744 z m 2.7744,0 h 2.7746 v 2.7744 h -2.7746 z m 2.7746,0 h 2.7745 v 2.7744 h -2.7745 z m 2.7745,0 h 2.7744 v 2.7744 h -2.7744 z m 2.7744,0 h 2.7745 v 2.7744 h -2.7745 z"
         id="qr-path-4"
         fill="#000000"
         fill-opacity="1"
         fill-rule="nonzero"
         stroke="none"
         style="display:inline;stroke-width:2.77451" />
      <g
         id="g2"
         transform="matrix(0.69329109,0,0,0.69329109,1352.8663,1025.7133)"
         style="display:inline">
        <path
           style="display:inline;opacity:1;vector-effect:none;fill:none;fill-opacity:1;fill-rule:nonzero;stroke:#1f567d;stroke-width:62.358;stroke-linecap:butt;stroke-linejoin:miter;stroke-miterlimit:4;stroke-dasharray:none;stroke-dashoffset:0;stroke-opacity:1"
           id="path3981-2-1-6-7-5-0-4-4-8-3-3-7"
           transform="rotate(90.00083)"
           sodipodi:type="arc"
           sodipodi:cx="573.71082"
           sodipodi:cy="-501.7785"
           sodipodi:rx="129.58989"
           sodipodi:ry="129.58989"
           sodipodi:start="0.52359878"
           sodipodi:end="5.7595865"
           d="m 685.93895,-436.98356 a 129.58989,129.58989 0 0 1 -145.76847,60.37928 129.58989,129.58989 0 0 1 -96.04955,-125.17422 129.58989,129.58989 0 0 1 96.04955,-125.17422 129.58989,129.58989 0 0 1 145.76847,60.37927"
           sodipodi:open="true"
           sodipodi:arc-type="arc" />
      </g>
      <text
         xml:space="preserve"
         style="font-style:normal;font-variant:normal;font-weight:bold;font-stretch:normal;font-size:293.353px;font-family:FreeSans;-inkscape-font-specification:'FreeSans Bold';display:inline;opacity:0.99;fill:#1f567d;fill-opacity:1;stroke-width:1.6631;stroke-linejoin:round"
         x="1464.2008"
         y="1519.9945"
         id="text1-6"><tspan
           sodipodi:role="line"
           id="tspan1-3"
           x="1464.2008"
           y="1519.9945"
           style="fill:#1f567d;fill-opacity:1;stroke-width:1.6631">1</tspan></text>
    </g>
    <text
       xml:space="preserve"
       style="font-style:normal;font-weight:normal;font-size:57.2973px;line-height:100%;font-family:sans-serif;letter-spacing:3.83186px;word-spacing:0px;display:inline;fill:#000000;fill-opacity:1;stroke:none;stroke-width:0.767376"
       x="1534.0188"
       y="1542.2004"
       id="text2987-2-8-8"><tspan
         sodipodi:role="line"
         x="1534.0188"
         y="1542.2004"
         style="font-style:normal;font-variant:normal;font-weight:normal;font-stretch:normal;font-size:57.2973px;line-height:100%;font-family:FreeSans;-inkscape-font-specification:FreeSans;letter-spacing:3.83186px;writing-mode:lr-tb;stroke-width:0.767376"
         id="tspan4-6" /><tspan
         sodipodi:role="line"
         x="1534.0188"
         y="1601.8031"
         style="font-style:normal;font-variant:normal;font-weight:normal;font-stretch:normal;font-size:57.2973px;line-height:100%;font-family:FreeSans;-inkscape-font-specification:FreeSans;letter-spacing:0px;writing-mode:lr-tb;stroke-width:0.767376"
         id="tspan8-0"><tspan
   style="font-style:normal;font-variant:normal;font-weight:bold;font-stretch:normal;font-family:FreeSans;-inkscape-font-specification:'FreeSans Bold';letter-spacing:0px;stroke-width:0.767376"
   id="tspan12-4">o</tspan>pen</tspan><tspan
         sodipodi:role="line"
         x="1534.0188"
         y="1661.4056"
         style="font-style:normal;font-variant:normal;font-weight:normal;font-stretch:normal;font-size:57.2973px;line-height:100%;font-family:FreeSans;-inkscape-font-specification:FreeSans;letter-spacing:0px;writing-mode:lr-tb;stroke-width:0.767376"
         id="tspan9-3"><tspan
   style="font-style:normal;font-variant:normal;font-weight:bold;font-stretch:normal;font-family:FreeSans;-inkscape-font-specification:'FreeSans Bold';letter-spacing:0px;stroke-width:0.767376"
   id="tspan13-7">e</tspan>nergy</tspan><tspan
         sodipodi:role="line"
         x="1534.0188"
         y="1721.0083"
         style="font-style:normal;font-variant:normal;font-weight:normal;font-stretch:normal;font-size:57.2973px;line-height:100%;font-family:FreeSans;-inkscape-font-specification:FreeSans;letter-spacing:0px;writing-mode:lr-tb;stroke-width:0.767376"
         id="tspan10-1"><tspan
   style="font-style:normal;font-variant:normal;font-weight:bold;font-stretch:normal;font-family:FreeSans;-inkscape-font-specification:'FreeSans Bold';letter-spacing:0px;stroke-width:0.767376"
   id="tspan14-9">mo</tspan>delling</tspan><tspan
         sodipodi:role="line"
         x="1534.0188"
         y="1780.611"
         style="font-style:normal;font-variant:normal;font-weight:normal;font-stretch:normal;font-size:57.2973px;line-height:100%;font-family:FreeSans;-inkscape-font-specification:FreeSans;letter-spacing:0px;writing-mode:lr-tb;stroke-width:0.767376"
         id="tspan11-5"><tspan
   style="font-style:normal;font-variant:normal;font-weight:bold;font-stretch:normal;font-family:FreeSans;-inkscape-font-specification:'FreeSans Bold';letter-spacing:0px;stroke-width:0.767376"
   id="tspan15-9">f</tspan>ramework</tspan></text>
  </g>
</svg>
