<?xml version="1.0" encoding="UTF-8" standalone="no"?>
<!-- Created with Inkscape (http://www.inkscape.org/) -->

<svg
   width="1050"
   height="500"
   id="svg2"
   version="1.1"
   inkscape:version="1.2.2 (b0a8486541, 2022-12-01)"
   sodipodi:docname="logo_oemof_anniversary.svg"
   inkscape:export-filename="/home/leppi/Dokumente/ZNES/Oemof/oemof_logo/done/logo_oemof_vec_inkscape_big_300DPI.png"
   inkscape:export-xdpi="300"
   inkscape:export-ydpi="300"
   xmlns:inkscape="http://www.inkscape.org/namespaces/inkscape"
   xmlns:sodipodi="http://sodipodi.sourceforge.net/DTD/sodipodi-0.dtd"
   xmlns:xlink="http://www.w3.org/1999/xlink"
   xmlns="http://www.w3.org/2000/svg"
   xmlns:svg="http://www.w3.org/2000/svg"
   xmlns:rdf="http://www.w3.org/1999/02/22-rdf-syntax-ns#"
   xmlns:cc="http://creativecommons.org/ns#"
   xmlns:dc="http://purl.org/dc/elements/1.1/">
  <defs
     id="defs4">
    <inkscape:path-effect
       effect="spiro"
       id="path-effect4646"
       is_visible="true"
       lpeversion="0" />
    <inkscape:path-effect
       effect="spiro"
       id="path-effect4642"
       is_visible="true"
       lpeversion="0" />
    <inkscape:path-effect
       effect="spiro"
       id="path-effect4638"
       is_visible="true"
       lpeversion="0" />
    <inkscape:path-effect
       effect="spiro"
       id="path-effect3273"
       is_visible="true"
       lpeversion="0" />
    <inkscape:path-effect
       effect="spiro"
       id="path-effect3265"
       is_visible="true"
       lpeversion="0" />
    <inkscape:path-effect
       effect="spiro"
       id="path-effect3261"
       is_visible="true"
       lpeversion="0" />
    <inkscape:path-effect
       effect="spiro"
       id="path-effect3257"
       is_visible="true"
       lpeversion="0" />
    <linearGradient
       id="linearGradient3960">
      <stop
         id="stop3972"
         offset="0"
         style="stop-color:#55d400;stop-opacity:0.74901961;" />
      <stop
         id="stop3970"
         offset="0.5"
         style="stop-color:#55d400;stop-opacity:0.49803922;" />
      <stop
         style="stop-color:#39d400;stop-opacity:0.24705882;"
         offset="0.75"
         id="stop3976" />
      <stop
         id="stop3980"
         offset="0.875"
         style="stop-color:#94d400;stop-opacity:0.24705882;" />
      <stop
         id="stop3978"
         offset="1"
         style="stop-color:#efd400;stop-opacity:0.24705882;" />
    </linearGradient>
    <marker
       inkscape:stockid="Arrow2Lstart"
       orient="auto"
       refY="0"
       refX="0"
       id="Arrow2Lstart"
       style="overflow:visible">
      <path
         id="path4366"
         style="fill-rule:evenodd;stroke-width:0.625;stroke-linejoin:round"
         d="M 8.7185878,4.0337352 -2.2072895,0.01601326 8.7185884,-4.0017078 c -1.7454984,2.3720609 -1.7354408,5.6174519 -6e-7,8.035443 z"
         transform="matrix(1.1,0,0,1.1,1.1,0)"
         inkscape:connector-curvature="0" />
    </marker>
    <marker
       inkscape:stockid="EmptyDiamondL"
       orient="auto"
       refY="0"
       refX="0"
       id="EmptyDiamondL"
       style="overflow:visible">
      <path
         id="path4454"
         d="M 0,-7.0710768 -7.0710894,0 0,7.0710589 7.0710462,0 Z"
         style="fill:#ffffff;fill-rule:evenodd;stroke:#000000;stroke-width:1pt"
         transform="scale(0.8)"
         inkscape:connector-curvature="0" />
    </marker>
    <marker
       inkscape:stockid="DiamondSstart"
       orient="auto"
       refY="0"
       refX="0"
       id="DiamondSstart"
       style="overflow:visible">
      <path
         id="path4442"
         d="M 0,-7.0710768 -7.0710894,0 0,7.0710589 7.0710462,0 Z"
         style="fill-rule:evenodd;stroke:#000000;stroke-width:1pt"
         transform="matrix(0.2,0,0,0.2,1.2,0)"
         inkscape:connector-curvature="0" />
    </marker>
    <marker
       inkscape:stockid="Arrow1Lstart"
       orient="auto"
       refY="0"
       refX="0"
       id="Arrow1Lstart"
       style="overflow:visible">
      <path
         id="path4348"
         d="M 0,0 5,-5 -12.5,0 5,5 Z"
         style="fill-rule:evenodd;stroke:#000000;stroke-width:1pt"
         transform="matrix(0.8,0,0,0.8,10,0)"
         inkscape:connector-curvature="0" />
    </marker>
    <marker
       inkscape:stockid="SquareL"
       orient="auto"
       refY="0"
       refX="0"
       id="SquareL"
       style="overflow:visible">
      <path
         id="path4418"
         d="M -5,-5 V 5 H 5 V -5 Z"
         style="fill-rule:evenodd;stroke:#000000;stroke-width:1pt"
         transform="scale(0.8)"
         inkscape:connector-curvature="0" />
    </marker>
    <inkscape:perspective
       sodipodi:type="inkscape:persp3d"
       inkscape:vp_x="-105.05586 : -65.83261 : 1"
       inkscape:vp_y="0 : 1000 : 0"
       inkscape:vp_z="1150 : 415 : 1"
       inkscape:persp3d-origin="575 : 348.33333 : 1"
       id="perspective4087" />
    <radialGradient
       r="97.496925"
       fy="188.21428"
       fx="236.78572"
       cy="188.21428"
       cx="236.78572"
       gradientTransform="translate(-139.2888,-90.7174)"
       gradientUnits="userSpaceOnUse"
       id="radialGradient3013"
       xlink:href="#linearGradient3684-76"
       inkscape:collect="always" />
    <radialGradient
       r="97.496925"
       fy="188.21428"
       fx="236.78572"
       cy="188.21428"
       cx="236.78572"
       gradientTransform="translate(-90.4365,1338.3028)"
       gradientUnits="userSpaceOnUse"
       id="radialGradient3004"
       xlink:href="#linearGradient3684-76"
       inkscape:collect="always" />
    <linearGradient
       id="linearGradient3684-76">
      <stop
         offset="0"
         style="stop-color:#000000;stop-opacity:1"
         id="stop3686-14" />
      <stop
         offset="0.89795917"
         style="stop-color:#000000;stop-opacity:0.86666667"
         id="stop3692-23" />
      <stop
         offset="1"
         style="stop-color:#000000;stop-opacity:0"
         id="stop3688-2" />
    </linearGradient>
    <radialGradient
       gradientTransform="translate(-90.4365,1338.3028)"
       gradientUnits="userSpaceOnUse"
       xlink:href="#linearGradient3684-76"
       id="radialGradient4894"
       fy="188.21428"
       fx="236.78572"
       r="97.496925"
       cy="188.21428"
       cx="236.78572" />
    <inkscape:path-effect
       effect="spiro"
       id="path-effect3273-8"
       is_visible="true"
       lpeversion="0" />
    <inkscape:path-effect
       effect="spiro"
       id="path-effect3273-3"
       is_visible="true"
       lpeversion="0" />
    <inkscape:path-effect
       effect="spiro"
       id="path-effect3273-3-6"
       is_visible="true"
       lpeversion="0" />
    <inkscape:path-effect
       effect="spiro"
       id="path-effect3273-3-0"
       is_visible="true"
       lpeversion="0" />
    <inkscape:path-effect
       effect="spiro"
       id="path-effect3273-3-0-5"
       is_visible="true"
       lpeversion="0" />
    <inkscape:path-effect
       effect="spiro"
       id="path-effect3273-3-0-6"
       is_visible="true"
       lpeversion="0" />
    <inkscape:path-effect
       effect="spiro"
       id="path-effect3273-2"
       is_visible="true"
       lpeversion="0" />
    <inkscape:path-effect
       effect="spiro"
       id="path-effect3273-8-0"
       is_visible="true"
       lpeversion="0" />
    <inkscape:path-effect
       effect="spiro"
       id="path-effect3273-3-1"
       is_visible="true"
       lpeversion="0" />
    <inkscape:path-effect
       effect="spiro"
       id="path-effect3273-3-6-7"
       is_visible="true"
       lpeversion="0" />
    <inkscape:path-effect
       effect="spiro"
       id="path-effect3273-3-0-8"
       is_visible="true"
       lpeversion="0" />
    <inkscape:path-effect
       effect="spiro"
       id="path-effect3273-3-0-5-1"
       is_visible="true"
       lpeversion="0" />
    <inkscape:path-effect
       effect="spiro"
       id="path-effect3273-3-0-6-5"
       is_visible="true"
       lpeversion="0" />
    <ellipse
       transform="matrix(-1.655217,1.5156218,-1.8633661,-2.0349941,554.10899,812.95323)"
       id="path3981-2-1-6-7-5-0-3-3-9"
       style="display:inline;fill:none;stroke:none"
       cx="-36.96954"
       cy="-68.571419"
       rx="43.030457"
       ry="35" />
    <inkscape:path-effect
       effect="spiro"
       id="path-effect3273-9"
       is_visible="true"
       lpeversion="0" />
    <inkscape:path-effect
       effect="spiro"
       id="path-effect3273-8-3"
       is_visible="true"
       lpeversion="0" />
    <inkscape:path-effect
       effect="spiro"
       id="path-effect3273-3-2"
       is_visible="true"
       lpeversion="0" />
    <inkscape:path-effect
       effect="spiro"
       id="path-effect3273-3-6-0"
       is_visible="true"
       lpeversion="0" />
    <inkscape:path-effect
       effect="spiro"
       id="path-effect3273-3-0-1"
       is_visible="true"
       lpeversion="0" />
    <inkscape:path-effect
       effect="spiro"
       id="path-effect3273-3-0-5-8"
       is_visible="true"
       lpeversion="0" />
    <inkscape:path-effect
       effect="spiro"
       id="path-effect3273-3-0-6-3"
       is_visible="true"
       lpeversion="0" />
  </defs>
  <sodipodi:namedview
     id="base"
     pagecolor="#ffffff"
     bordercolor="#666666"
     borderopacity="1.0"
     inkscape:pageopacity="0.0"
     inkscape:pageshadow="2"
     inkscape:zoom="0.66211825"
     inkscape:cx="370.77969"
     inkscape:cy="163.11286"
     inkscape:document-units="px"
     inkscape:current-layer="layer1"
     showgrid="false"
     inkscape:window-width="1920"
     inkscape:window-height="1005"
     inkscape:window-x="0"
     inkscape:window-y="0"
     inkscape:window-maximized="1"
     showguides="true"
     inkscape:guide-bbox="true"
     width="1150px"
     inkscape:snap-center="true"
     inkscape:showpageshadow="2"
     inkscape:pagecheckerboard="0"
     inkscape:deskcolor="#d1d1d1">
    <sodipodi:guide
       orientation="1,0"
       position="-1.5835887,785.09191"
       id="guide3070"
       inkscape:locked="false" />
    <sodipodi:guide
       orientation="0,1"
       position="399.06434,221.33435"
       id="guide3098"
       inkscape:locked="false" />
    <sodipodi:guide
       orientation="1,0"
       position="327.80285,764.50526"
       id="guide3121"
       inkscape:locked="false" />
    <sodipodi:guide
       orientation="1,0"
       position="1333.3816,889.60876"
       id="guide3065"
       inkscape:locked="false" />
    <sodipodi:guide
       orientation="1,0"
       position="812.38098,783.50833"
       id="guide3067"
       inkscape:locked="false" />
    <sodipodi:guide
       orientation="0,1"
       position="1059.4208,449.37112"
       id="guide3069"
       inkscape:locked="false" />
    <sodipodi:guide
       orientation="1,0"
       position="536.83655,938.70001"
       id="guide3073"
       inkscape:locked="false" />
    <sodipodi:guide
       orientation="1,0"
       position="848.80352,827.84881"
       id="guide3075"
       inkscape:locked="false" />
  </sodipodi:namedview>
  <metadata
     id="metadata7">
    <rdf:RDF>
      <cc:Work
         rdf:about="">
        <dc:format>image/svg+xml</dc:format>
        <dc:type
           rdf:resource="http://purl.org/dc/dcmitype/StillImage" />
      </cc:Work>
    </rdf:RDF>
  </metadata>
  <g
     inkscape:label="Ebene 1"
     inkscape:groupmode="layer"
     id="layer1"
     transform="translate(0,-767.3622)"
     style="display:inline">
    <g
       transform="matrix(0.91666939,0.00891669,-0.008729,0.91623053,14.672869,82.666835)"
       id="g3831-9-3-1-6-3"
       style="display:inline;fill:none;stroke:#cfcfcf;stroke-width:1.46722;stroke-linecap:round;stroke-miterlimit:4;stroke-dasharray:none;stroke-opacity:1" />
    <text
       xml:space="preserve"
       style="font-style:normal;font-weight:normal;font-size:155.128px;line-height:1.25;font-family:sans-serif;letter-spacing:0px;word-spacing:0px;fill:#b3b3b3;fill-opacity:1;stroke:none;stroke-width:0.807961"
       x="69.40316"
       y="1230.9958"
       id="text710"><tspan
         sodipodi:role="line"
         id="tspan708"
         x="69.40316"
         y="1230.9958"
         style="font-size:155.128px;stroke-width:0.807961">[ˌænɪˈvɜːsəri]</tspan></text>
    <text
       xml:space="preserve"
       style="font-style:normal;font-weight:normal;font-size:10.3607px;line-height:0%;font-family:sans-serif;letter-spacing:0px;word-spacing:0px;display:inline;fill:#000000;fill-opacity:1;stroke:none;stroke-width:0.863394"
       x="78.097931"
       y="1095.1282"
       id="text3020-0"><tspan
         sodipodi:role="line"
         id="tspan3022-9"
         x="78.097931"
         y="1095.1282"
         style="font-style:normal;font-variant:normal;font-weight:normal;font-stretch:normal;font-size:58.7108px;line-height:1.25;font-family:FreeSans;-inkscape-font-specification:FreeSans;stroke-width:0.863394"><tspan
   style="font-weight:600;font-size:58.7108px;-inkscape-font-specification:'FreeSans Semi-Bold';stroke-width:0.863394"
   id="tspan3002">o</tspan>pen <tspan
   style="font-weight:600;font-size:58.7108px;-inkscape-font-specification:'FreeSans Semi-Bold';stroke-width:0.863394"
   id="tspan3004">e</tspan>nergy <tspan
   style="font-weight:600;font-size:58.7108px;-inkscape-font-specification:'FreeSans Semi-Bold';stroke-width:0.863394"
   id="tspan3006">mo</tspan>delling <tspan
   style="font-weight:600;font-size:58.7108px;-inkscape-font-specification:'FreeSans Semi-Bold';stroke-width:0.863394"
   id="tspan3008">f</tspan>ramework</tspan></text>
    <g
       style="display:inline"
       id="g3465-3-7"
       transform="matrix(1.14,0,0,1.14,259.92342,-137.15025)">
      <path
         style="display:inline;opacity:1;vector-effect:none;fill:none;fill-opacity:1;fill-rule:nonzero;stroke:#1f567d;stroke-width:48.2456;stroke-linecap:butt;stroke-linejoin:miter;stroke-miterlimit:4;stroke-dasharray:none;stroke-dashoffset:0;stroke-opacity:1"
         id="path3981-2-1-6-7-5-0-4-4-8-3-3"
         transform="rotate(90.00083)"
         sodipodi:type="arc"
         sodipodi:cx="928.4068"
         sodipodi:cy="-157.64598"
         sodipodi:rx="100.26201"
         sodipodi:ry="100.26201"
         sodipodi:start="0.52359878"
         sodipodi:end="5.7595865"
         d="m 1015.2362,-107.51498 a 100.26201,100.26201 0 0 1 -112.77912,46.714663 100.26201,100.26201 0 0 1 -74.31229,-96.845663 100.26201,100.26201 0 0 1 74.31229,-96.84566 100.26201,100.26201 0 0 1 112.77912,46.71465"
         sodipodi:open="true"
         sodipodi:arc-type="arc" />
    </g>
    <path
       d="m 386.17072,863.55448 h 4.5079 v 4.5079 h -4.5079 z m 4.5079,0 h 4.5078 v 4.5079 h -4.5078 z m 4.5078,0 h 4.5079 v 4.5079 h -4.5079 z m 4.5079,0 h 4.5079 v 4.5079 h -4.5079 z m 4.5079,0 h 4.5079 v 4.5079 h -4.5079 z m 4.5079,0 h 4.5078 v 4.5079 h -4.5078 z m 4.5078,0 h 4.5079 v 4.5079 h -4.5079 z m 13.5236,0 h 4.5079 v 4.5079 h -4.5079 z m 4.5079,0 h 4.5079 v 4.5079 h -4.5079 z m 4.5079,0 h 4.5079 v 4.5079 h -4.5079 z m 9.0157,0 h 4.5079 v 4.5079 h -4.5079 z m 9.0158,0 h 4.5078 v 4.5079 h -4.5078 z m 13.5236,0 h 4.5079 v 4.5079 h -4.5079 z m 4.5079,0 h 4.5079 v 4.5079 h -4.5079 z m 4.5079,0 h 4.5078 v 4.5079 h -4.5078 z m 4.5078,0 h 4.5079 v 4.5079 h -4.5079 z m 4.5079,0 h 4.5079 v 4.5079 h -4.5079 z m 4.5079,0 h 4.5078 v 4.5079 h -4.5078 z m 4.5078,0 h 4.5079 v 4.5079 h -4.5079 z m -108.1889,4.5079 h 4.5079 v 4.5079 h -4.5079 z m 27.0472,0 h 4.5079 v 4.5079 h -4.5079 z m 18.0315,0 h 4.5079 v 4.5079 h -4.5079 z m 13.5236,0 h 4.5079 v 4.5079 h -4.5079 z m 4.5079,0 h 4.5079 v 4.5079 h -4.5079 z m 4.5079,0 h 4.5078 v 4.5079 h -4.5078 z m 4.5078,0 h 4.5079 v 4.5079 h -4.5079 z m 9.0158,0 h 4.5079 v 4.5079 h -4.5079 z m 27.0472,0 h 4.5079 v 4.5079 h -4.5079 z m -108.1889,4.5079 h 4.5079 v 4.5079 h -4.5079 z m 9.0157,0 h 4.5079 v 4.5079 h -4.5079 z m 4.5079,0 h 4.5079 v 4.5079 h -4.5079 z m 4.5079,0 h 4.5079 v 4.5079 h -4.5079 z m 9.0157,0 h 4.5079 v 4.5079 h -4.5079 z m 9.0158,0 h 4.5078 v 4.5079 h -4.5078 z m 9.0157,0 h 4.5079 v 4.5079 h -4.5079 z m 4.5079,0 h 4.5079 v 4.5079 h -4.5079 z m 4.5079,0 h 4.5078 v 4.5079 h -4.5078 z m 4.5078,0 h 4.5079 v 4.5079 h -4.5079 z m 13.5236,0 h 4.5079 v 4.5079 h -4.5079 z m 9.0158,0 h 4.5079 v 4.5079 h -4.5079 z m 9.0158,0 h 4.5078 v 4.5079 h -4.5078 z m 4.5078,0 h 4.5079 v 4.5079 h -4.5079 z m 4.5079,0 h 4.5079 v 4.5079 h -4.5079 z m 9.0157,0 h 4.5079 v 4.5079 h -4.5079 z m -108.1889,4.5079 h 4.5079 v 4.5078 h -4.5079 z m 9.0157,0 h 4.5079 v 4.5078 h -4.5079 z m 4.5079,0 h 4.5079 v 4.5078 h -4.5079 z m 4.5079,0 h 4.5079 v 4.5078 h -4.5079 z m 9.0157,0 h 4.5079 v 4.5078 h -4.5079 z m 9.0158,0 h 4.5078 v 4.5078 h -4.5078 z m 4.5078,0 h 4.5079 v 4.5078 h -4.5079 z m 4.5079,0 h 4.5079 v 4.5078 h -4.5079 z m 18.0315,0 h 4.5079 v 4.5078 h -4.5079 z m 4.5079,0 h 4.5078 v 4.5078 h -4.5078 z m 13.5236,0 h 4.5079 v 4.5078 h -4.5079 z m 9.0158,0 h 4.5078 v 4.5078 h -4.5078 z m 4.5078,0 h 4.5079 v 4.5078 h -4.5079 z m 4.5079,0 h 4.5079 v 4.5078 h -4.5079 z m 9.0157,0 h 4.5079 v 4.5078 h -4.5079 z m -108.1889,4.5078 h 4.5079 v 4.5079 h -4.5079 z m 9.0157,0 h 4.5079 v 4.5079 h -4.5079 z m 4.5079,0 h 4.5079 v 4.5079 h -4.5079 z m 4.5079,0 h 4.5079 v 4.5079 h -4.5079 z m 9.0157,0 h 4.5079 v 4.5079 h -4.5079 z m 9.0158,0 h 4.5078 v 4.5079 h -4.5078 z m 4.5078,0 h 4.5079 v 4.5079 h -4.5079 z m 4.5079,0 h 4.5079 v 4.5079 h -4.5079 z m 4.5079,0 h 4.5079 v 4.5079 h -4.5079 z m 4.5079,0 h 4.5078 v 4.5079 h -4.5078 z m 18.0314,0 h 4.5079 v 4.5079 h -4.5079 z m 9.0158,0 h 4.5079 v 4.5079 h -4.5079 z m 9.0158,0 h 4.5078 v 4.5079 h -4.5078 z m 4.5078,0 h 4.5079 v 4.5079 h -4.5079 z m 4.5079,0 h 4.5079 v 4.5079 h -4.5079 z m 9.0157,0 h 4.5079 v 4.5079 h -4.5079 z m -108.1889,4.5079 h 4.5079 v 4.5079 h -4.5079 z m 27.0472,0 h 4.5079 v 4.5079 h -4.5079 z m 9.0158,0 h 4.5078 v 4.5079 h -4.5078 z m 9.0157,0 h 4.5079 v 4.5079 h -4.5079 z m 4.5079,0 h 4.5079 v 4.5079 h -4.5079 z m 18.0315,0 h 4.5078 v 4.5079 h -4.5078 z m 13.5236,0 h 4.5079 v 4.5079 h -4.5079 z m 27.0472,0 h 4.5079 v 4.5079 h -4.5079 z m -108.1889,4.5079 h 4.5079 v 4.5079 h -4.5079 z m 4.5079,0 h 4.5078 v 4.5079 h -4.5078 z m 4.5078,0 h 4.5079 v 4.5079 h -4.5079 z m 4.5079,0 h 4.5079 v 4.5079 h -4.5079 z m 4.5079,0 h 4.5079 v 4.5079 h -4.5079 z m 4.5079,0 h 4.5078 v 4.5079 h -4.5078 z m 4.5078,0 h 4.5079 v 4.5079 h -4.5079 z m 9.0158,0 h 4.5078 v 4.5079 h -4.5078 z m 9.0157,0 h 4.5079 v 4.5079 h -4.5079 z m 9.0158,0 h 4.5078 v 4.5079 h -4.5078 z m 9.0157,0 h 4.5079 v 4.5079 h -4.5079 z m 9.0157,0 h 4.5079 v 4.5079 h -4.5079 z m 9.0158,0 h 4.5079 v 4.5079 h -4.5079 z m 4.5079,0 h 4.5079 v 4.5079 h -4.5079 z m 4.5079,0 h 4.5078 v 4.5079 h -4.5078 z m 4.5078,0 h 4.5079 v 4.5079 h -4.5079 z m 4.5079,0 h 4.5079 v 4.5079 h -4.5079 z m 4.5079,0 h 4.5078 v 4.5079 h -4.5078 z m 4.5078,0 h 4.5079 v 4.5079 h -4.5079 z m -72.1259,4.5079 h 4.5078 v 4.5078 h -4.5078 z m 4.5078,0 h 4.5079 v 4.5078 h -4.5079 z m 22.5394,0 h 4.5079 v 4.5078 h -4.5079 z m -63.1102,4.5078 h 4.5079 v 4.5079 h -4.5079 z m 9.0157,0 h 4.5079 v 4.5079 h -4.5079 z m 4.5079,0 h 4.5079 v 4.5079 h -4.5079 z m 4.5079,0 h 4.5079 v 4.5079 h -4.5079 z m 4.5079,0 h 4.5078 v 4.5079 h -4.5078 z m 4.5078,0 h 4.5079 v 4.5079 h -4.5079 z m 18.0315,0 h 4.5079 v 4.5079 h -4.5079 z m 9.0158,0 h 4.5078 v 4.5079 h -4.5078 z m 13.5236,0 h 4.5078 v 4.5079 h -4.5078 z m 4.5078,0 h 4.5079 v 4.5079 h -4.5079 z m 9.0158,0 h 4.5079 v 4.5079 h -4.5079 z m 4.5079,0 h 4.5079 v 4.5079 h -4.5079 z m 4.5079,0 h 4.5078 v 4.5079 h -4.5078 z m 4.5078,0 h 4.5079 v 4.5079 h -4.5079 z m 4.5079,0 h 4.5079 v 4.5079 h -4.5079 z m -99.1732,4.5079 h 4.5079 v 4.5079 h -4.5079 z m 4.5079,0 h 4.5078 v 4.5079 h -4.5078 z m 18.0315,0 h 4.5078 v 4.5079 h -4.5078 z m 13.5236,0 h 4.5078 v 4.5079 h -4.5078 z m 4.5078,0 h 4.5079 v 4.5079 h -4.5079 z m 9.0158,0 h 4.5079 v 4.5079 h -4.5079 z m 9.0157,0 h 4.5079 v 4.5079 h -4.5079 z m 4.5079,0 h 4.5079 v 4.5079 h -4.5079 z m 9.0157,0 h 4.5079 v 4.5079 h -4.5079 z m 13.5237,0 h 4.5079 v 4.5079 h -4.5079 z m 18.0315,0 h 4.5078 v 4.5079 h -4.5078 z m -99.1732,4.5079 h 4.5078 v 4.5078 h -4.5078 z m 9.0157,0 h 4.5079 v 4.5078 h -4.5079 z m 4.5079,0 h 4.5079 v 4.5078 h -4.5079 z m 4.5079,0 h 4.5078 v 4.5078 h -4.5078 z m 4.5078,0 h 4.5079 v 4.5078 h -4.5079 z m 31.5551,0 h 4.5079 v 4.5078 h -4.5079 z m 4.5079,0 h 4.5079 v 4.5078 h -4.5079 z m 4.5079,0 h 4.5078 v 4.5078 h -4.5078 z m 4.5078,0 h 4.5079 v 4.5078 h -4.5079 z m 4.5079,0 h 4.5079 v 4.5078 h -4.5079 z m 4.5079,0 h 4.5079 v 4.5078 h -4.5079 z m 4.5079,0 h 4.5079 v 4.5078 h -4.5079 z m 4.5079,0 h 4.5078 v 4.5078 h -4.5078 z m 4.5078,0 h 4.5079 v 4.5078 h -4.5079 z m 9.0158,0 h 4.5078 v 4.5078 h -4.5078 z m 4.5078,0 h 4.5079 v 4.5078 h -4.5079 z m -108.1889,4.5078 h 4.5079 v 4.5079 h -4.5079 z m 4.5079,0 h 4.5078 v 4.5079 h -4.5078 z m 18.0315,0 h 4.5078 v 4.5079 h -4.5078 z m 18.0314,0 h 4.5079 v 4.5079 h -4.5079 z m 9.0158,0 h 4.5079 v 4.5079 h -4.5079 z m 9.0157,0 h 4.5079 v 4.5079 h -4.5079 z m 13.5236,0 h 4.5079 v 4.5079 h -4.5079 z m 4.5079,0 h 4.5079 v 4.5079 h -4.5079 z m 4.5079,0 h 4.5079 v 4.5079 h -4.5079 z m 4.5079,0 h 4.5079 v 4.5079 h -4.5079 z m 4.5079,0 h 4.5078 v 4.5079 h -4.5078 z m 18.0314,0 h 4.5079 v 4.5079 h -4.5079 z m -81.1417,4.5079 h 4.5079 v 4.5079 h -4.5079 z m 4.5079,0 h 4.5079 v 4.5079 h -4.5079 z m 4.5079,0 h 4.5078 v 4.5079 h -4.5078 z m 9.0157,0 h 4.5079 v 4.5079 h -4.5079 z m 9.0158,0 h 4.5078 v 4.5079 h -4.5078 z m 9.0157,0 h 4.5079 v 4.5079 h -4.5079 z m 13.5236,0 h 4.5079 v 4.5079 h -4.5079 z m 4.5079,0 h 4.5079 v 4.5079 h -4.5079 z m 9.0158,0 h 4.5078 v 4.5079 h -4.5078 z m 9.0157,0 h 4.5079 v 4.5079 h -4.5079 z m 4.5079,0 h 4.5078 v 4.5079 h -4.5078 z m 4.5078,0 h 4.5079 v 4.5079 h -4.5079 z m -108.1889,4.5079 h 4.5079 v 4.5079 h -4.5079 z m 9.0157,0 h 4.5079 v 4.5079 h -4.5079 z m 9.0158,0 h 4.5079 v 4.5079 h -4.5079 z m 22.5393,0 h 4.5079 v 4.5079 h -4.5079 z m 4.5079,0 h 4.5079 v 4.5079 h -4.5079 z m 27.0472,0 h 4.5079 v 4.5079 h -4.5079 z m 13.5237,0 h 4.5079 v 4.5079 h -4.5079 z m 9.0157,0 h 4.5079 v 4.5079 h -4.5079 z m 9.0158,0 h 4.5078 v 4.5079 h -4.5078 z m -103.6811,4.5079 h 4.5079 v 4.5078 h -4.5079 z m 13.5236,0 h 4.5079 v 4.5078 h -4.5079 z m 13.5236,0 h 4.5079 v 4.5078 h -4.5079 z m 4.5079,0 h 4.5079 v 4.5078 h -4.5079 z m 4.5079,0 h 4.5078 v 4.5078 h -4.5078 z m 4.5078,0 h 4.5079 v 4.5078 h -4.5079 z m 9.0158,0 h 4.5079 v 4.5078 h -4.5079 z m 4.5079,0 h 4.5078 v 4.5078 h -4.5078 z m 13.5236,0 h 4.5078 v 4.5078 h -4.5078 z m 9.0157,0 h 4.5079 v 4.5078 h -4.5079 z m 9.0158,0 h 4.5079 v 4.5078 h -4.5079 z m 4.5079,0 h 4.5078 v 4.5078 h -4.5078 z m 4.5078,0 h 4.5079 v 4.5078 h -4.5079 z m 9.0158,0 h 4.5078 v 4.5078 h -4.5078 z m 4.5078,0 h 4.5079 v 4.5078 h -4.5079 z m -108.1889,4.5078 h 4.5079 v 4.5079 h -4.5079 z m 9.0157,0 h 4.5079 v 4.5079 h -4.5079 z m 31.5551,0 h 4.5079 v 4.5079 h -4.5079 z m 9.0158,0 h 4.5079 v 4.5079 h -4.5079 z m 13.5236,0 h 4.5079 v 4.5079 h -4.5079 z m 9.0157,0 h 4.5079 v 4.5079 h -4.5079 z m 4.5079,0 h 4.5079 v 4.5079 h -4.5079 z m 4.5079,0 h 4.5079 v 4.5079 h -4.5079 z m 4.5079,0 h 4.5079 v 4.5079 h -4.5079 z m 4.5079,0 h 4.5078 v 4.5079 h -4.5078 z m 18.0314,0 h 4.5079 v 4.5079 h -4.5079 z m -108.1889,4.5079 h 4.5079 v 4.5079 h -4.5079 z m 13.5236,0 h 4.5079 v 4.5079 h -4.5079 z m 4.5079,0 h 4.5079 v 4.5079 h -4.5079 z m 9.0157,0 h 4.5079 v 4.5079 h -4.5079 z m 4.5079,0 h 4.5079 v 4.5079 h -4.5079 z m 4.5079,0 h 4.5078 v 4.5079 h -4.5078 z m 4.5078,0 h 4.5079 v 4.5079 h -4.5079 z m 4.5079,0 h 4.5079 v 4.5079 h -4.5079 z m 4.5079,0 h 4.5079 v 4.5079 h -4.5079 z m 22.5393,0 h 4.5079 v 4.5079 h -4.5079 z m 4.5079,0 h 4.5079 v 4.5079 h -4.5079 z m 4.5079,0 h 4.5079 v 4.5079 h -4.5079 z m 4.5079,0 h 4.5079 v 4.5079 h -4.5079 z m 4.5079,0 h 4.5078 v 4.5079 h -4.5078 z m 9.0157,0 h 4.5079 v 4.5079 h -4.5079 z m -63.1102,4.5079 h 4.5078 v 4.5079 h -4.5078 z m 9.0157,0 h 4.5079 v 4.5079 h -4.5079 z m 9.0158,0 h 4.5078 v 4.5079 h -4.5078 z m 4.5078,0 h 4.5079 v 4.5079 h -4.5079 z m 4.5079,0 h 4.5079 v 4.5079 h -4.5079 z m 4.5079,0 h 4.5078 v 4.5079 h -4.5078 z m 4.5078,0 h 4.5079 v 4.5079 h -4.5079 z m 18.0316,0 h 4.5078 v 4.5079 h -4.5078 z m 4.5078,0 h 4.5079 v 4.5079 h -4.5079 z m -94.6653,4.5079 h 4.5079 v 4.5078 h -4.5079 z m 4.5079,0 h 4.5078 v 4.5078 h -4.5078 z m 4.5078,0 h 4.5079 v 4.5078 h -4.5079 z m 4.5079,0 h 4.5079 v 4.5078 h -4.5079 z m 4.5079,0 h 4.5079 v 4.5078 h -4.5079 z m 4.5079,0 h 4.5078 v 4.5078 h -4.5078 z m 4.5078,0 h 4.5079 v 4.5078 h -4.5079 z m 13.5236,0 h 4.5079 v 4.5078 h -4.5079 z m 18.0315,0 h 4.5079 v 4.5078 h -4.5079 z m 4.5079,0 h 4.5079 v 4.5078 h -4.5079 z m 9.0157,0 h 4.5079 v 4.5078 h -4.5079 z m 9.0158,0 h 4.5079 v 4.5078 h -4.5079 z m 9.0158,0 h 4.5078 v 4.5078 h -4.5078 z m 9.0157,0 h 4.5079 v 4.5078 h -4.5079 z m 4.5079,0 h 4.5078 v 4.5078 h -4.5078 z m 4.5078,0 h 4.5079 v 4.5078 h -4.5079 z m -108.1889,4.5078 h 4.5079 v 4.5079 h -4.5079 z m 27.0472,0 h 4.5079 v 4.5079 h -4.5079 z m 9.0158,0 h 4.5078 v 4.5079 h -4.5078 z m 4.5078,0 h 4.5079 v 4.5079 h -4.5079 z m 4.5079,0 h 4.5079 v 4.5079 h -4.5079 z m 9.0158,0 h 4.5078 v 4.5079 h -4.5078 z m 4.5078,0 h 4.5079 v 4.5079 h -4.5079 z m 9.0158,0 h 4.5078 v 4.5079 h -4.5078 z m 4.5078,0 h 4.5079 v 4.5079 h -4.5079 z m 18.0316,0 h 4.5078 v 4.5079 h -4.5078 z m 4.5078,0 h 4.5079 v 4.5079 h -4.5079 z m 9.0158,0 h 4.5078 v 4.5079 h -4.5078 z m 4.5078,0 h 4.5079 v 4.5079 h -4.5079 z m -108.1889,4.5079 h 4.5079 v 4.5079 h -4.5079 z m 9.0157,0 h 4.5079 v 4.5079 h -4.5079 z m 4.5079,0 h 4.5079 v 4.5079 h -4.5079 z m 4.5079,0 h 4.5079 v 4.5079 h -4.5079 z m 9.0157,0 h 4.5079 v 4.5079 h -4.5079 z m 9.0158,0 h 4.5078 v 4.5079 h -4.5078 z m 4.5078,0 h 4.5079 v 4.5079 h -4.5079 z m 4.5079,0 h 4.5079 v 4.5079 h -4.5079 z m 9.0158,0 h 4.5078 v 4.5079 h -4.5078 z m 9.0157,0 h 4.5079 v 4.5079 h -4.5079 z m 4.5079,0 h 4.5078 v 4.5079 h -4.5078 z m 4.5078,0 h 4.5079 v 4.5079 h -4.5079 z m 4.5079,0 h 4.5079 v 4.5079 h -4.5079 z m 4.5079,0 h 4.5079 v 4.5079 h -4.5079 z m 4.5079,0 h 4.5079 v 4.5079 h -4.5079 z m 4.5079,0 h 4.5078 v 4.5079 h -4.5078 z m 9.0157,0 h 4.5079 v 4.5079 h -4.5079 z m 9.0157,0 h 4.5079 v 4.5079 h -4.5079 z m -108.1889,4.5079 h 4.5079 v 4.5079 h -4.5079 z m 9.0157,0 h 4.5079 v 4.5079 h -4.5079 z m 4.5079,0 h 4.5079 v 4.5079 h -4.5079 z m 4.5079,0 h 4.5079 v 4.5079 h -4.5079 z m 9.0157,0 h 4.5079 v 4.5079 h -4.5079 z m 9.0158,0 h 4.5078 v 4.5079 h -4.5078 z m 4.5078,0 h 4.5079 v 4.5079 h -4.5079 z m 4.5079,0 h 4.5079 v 4.5079 h -4.5079 z m 22.5394,0 h 4.5078 v 4.5079 h -4.5078 z m 4.5078,0 h 4.5079 v 4.5079 h -4.5079 z m 4.5079,0 h 4.5079 v 4.5079 h -4.5079 z m 4.5079,0 h 4.5079 v 4.5079 h -4.5079 z m 9.0158,0 h 4.5078 v 4.5079 h -4.5078 z m 4.5078,0 h 4.5079 v 4.5079 h -4.5079 z m 4.5079,0 h 4.5079 v 4.5079 h -4.5079 z m 4.5079,0 h 4.5078 v 4.5079 h -4.5078 z m 4.5078,0 h 4.5079 v 4.5079 h -4.5079 z m -108.1889,4.5079 h 4.5079 v 4.5078 h -4.5079 z m 9.0157,0 h 4.5079 v 4.5078 h -4.5079 z m 4.5079,0 h 4.5079 v 4.5078 h -4.5079 z m 4.5079,0 h 4.5079 v 4.5078 h -4.5079 z m 9.0157,0 h 4.5079 v 4.5078 h -4.5079 z m 9.0158,0 h 4.5078 v 4.5078 h -4.5078 z m 4.5078,0 h 4.5079 v 4.5078 h -4.5079 z m 9.0158,0 h 4.5079 v 4.5078 h -4.5079 z m 4.5079,0 h 4.5078 v 4.5078 h -4.5078 z m 40.5708,0 h 4.5079 v 4.5078 h -4.5079 z m 4.5079,0 h 4.5079 v 4.5078 h -4.5079 z m 9.0157,0 h 4.5079 v 4.5078 h -4.5079 z m -108.1889,4.5078 h 4.5079 v 4.5079 h -4.5079 z m 27.0472,0 h 4.5079 v 4.5079 h -4.5079 z m 13.5236,0 h 4.5079 v 4.5079 h -4.5079 z m 9.0158,0 h 4.5079 v 4.5079 h -4.5079 z m 13.5236,0 h 4.5079 v 4.5079 h -4.5079 z m 4.5079,0 h 4.5078 v 4.5079 h -4.5078 z m 4.5078,0 h 4.5079 v 4.5079 h -4.5079 z m 4.5079,0 h 4.5079 v 4.5079 h -4.5079 z m 9.0158,0 h 4.5079 v 4.5079 h -4.5079 z m 4.5079,0 h 4.5078 v 4.5079 h -4.5078 z m 4.5078,0 h 4.5079 v 4.5079 h -4.5079 z m 13.5236,0 h 4.5079 v 4.5079 h -4.5079 z m -108.1889,4.5079 h 4.5079 v 4.5079 h -4.5079 z m 4.5079,0 h 4.5078 v 4.5079 h -4.5078 z m 4.5078,0 h 4.5079 v 4.5079 h -4.5079 z m 4.5079,0 h 4.5079 v 4.5079 h -4.5079 z m 4.5079,0 h 4.5079 v 4.5079 h -4.5079 z m 4.5079,0 h 4.5078 v 4.5079 h -4.5078 z m 4.5078,0 h 4.5079 v 4.5079 h -4.5079 z m 9.0158,0 h 4.5078 v 4.5079 h -4.5078 z m 13.5236,0 h 4.5079 v 4.5079 h -4.5079 z m 27.0472,0 h 4.5079 v 4.5079 h -4.5079 z m 9.0158,0 h 4.5079 v 4.5079 h -4.5079 z m 4.5079,0 h 4.5078 v 4.5079 h -4.5078 z m 4.5078,0 h 4.5079 v 4.5079 h -4.5079 z m 4.5079,0 h 4.5079 v 4.5079 h -4.5079 z m 4.5079,0 h 4.5078 v 4.5079 h -4.5078 z m 4.5078,0 h 4.5079 v 4.5079 h -4.5079 z"
       id="qr-path"
       fill="#000000"
       fill-opacity="1"
       fill-rule="nonzero"
       stroke="none"
       style="display:inline;stroke-width:4.50788" />
    <text
       xml:space="preserve"
       style="font-style:normal;font-variant:normal;font-weight:bold;font-stretch:normal;font-size:348.574px;font-family:FreeSans;-inkscape-font-specification:'FreeSans Bold';display:inline;opacity:0.99;fill:#1f567d;fill-opacity:1;stroke-width:1.97617;stroke-linejoin:round"
       x="85.906952"
       y="1035.1659"
       id="text1"><tspan
         sodipodi:role="line"
         id="tspan1"
         x="85.906952"
         y="1035.1659"
         style="fill:#1f567d;fill-opacity:1;stroke-width:1.97617">2</tspan></text>
    <text
       xml:space="preserve"
       style="font-style:normal;font-variant:normal;font-weight:bold;font-stretch:normal;font-size:222.438px;font-family:FreeSans;-inkscape-font-specification:'FreeSans Bold';display:inline;opacity:0.99;fill:#1f567d;fill-opacity:1;stroke-width:1.26107;stroke-linejoin:round"
       x="372.12296"
       y="1395.5095"
       id="text1-3"
       transform="scale(1.567063,0.63813643)"><tspan
         sodipodi:role="line"
         id="tspan1-6"
         x="372.12296"
         y="1395.5095"
         style="fill:#1f567d;fill-opacity:1;stroke-width:1.26107">14</tspan></text>
    <text
       xml:space="preserve"
       style="font-style:normal;font-variant:normal;font-weight:bold;font-stretch:normal;font-size:222.438px;font-family:FreeSans;-inkscape-font-specification:'FreeSans Bold';display:inline;opacity:0.99;fill:#1f567d;fill-opacity:1;stroke-width:1.26107;stroke-linejoin:round"
       x="370.81735"
       y="1612.703"
       id="text1-3-7"
       transform="scale(1.567063,0.63813643)"><tspan
         sodipodi:role="line"
         id="tspan1-6-5"
         x="370.81735"
         y="1612.703"
         style="fill:#1f567d;fill-opacity:1;stroke-width:1.26107">24</tspan></text>
  </g>
</svg>
