<?xml version="1.0" encoding="UTF-8" standalone="no"?>
<!-- Created with Inkscape (http://www.inkscape.org/) -->

<svg
   width="900"
   height="285"
   id="svg2"
   version="1.1"
   inkscape:version="1.3.2 (1:1.3.2+202311252150+091e20ef0f)"
   sodipodi:docname="shirt_logo_front_gray.svg"
   inkscape:export-filename="/home/leppi/Dokumente/ZNES/Oemof/oemof_logo/done/logo_oemof_vec_inkscape_mid_300DPI.png"
   inkscape:export-xdpi="300"
   inkscape:export-ydpi="300"
   xmlns:inkscape="http://www.inkscape.org/namespaces/inkscape"
   xmlns:sodipodi="http://sodipodi.sourceforge.net/DTD/sodipodi-0.dtd"
   xmlns:xlink="http://www.w3.org/1999/xlink"
   xmlns="http://www.w3.org/2000/svg"
   xmlns:svg="http://www.w3.org/2000/svg"
   xmlns:rdf="http://www.w3.org/1999/02/22-rdf-syntax-ns#"
   xmlns:cc="http://creativecommons.org/ns#"
   xmlns:dc="http://purl.org/dc/elements/1.1/">
  <defs
     id="defs4">
    <inkscape:path-effect
       effect="spiro"
       id="path-effect4646"
       is_visible="true" />
    <inkscape:path-effect
       effect="spiro"
       id="path-effect4642"
       is_visible="true" />
    <inkscape:path-effect
       effect="spiro"
       id="path-effect4638"
       is_visible="true" />
    <inkscape:path-effect
       effect="spiro"
       id="path-effect3273"
       is_visible="true" />
    <inkscape:path-effect
       effect="spiro"
       id="path-effect3265"
       is_visible="true" />
    <inkscape:path-effect
       effect="spiro"
       id="path-effect3261"
       is_visible="true" />
    <inkscape:path-effect
       effect="spiro"
       id="path-effect3257"
       is_visible="true" />
    <linearGradient
       id="linearGradient3960">
      <stop
         id="stop3972"
         offset="0"
         style="stop-color:#55d400;stop-opacity:0.74901961;" />
      <stop
         id="stop3970"
         offset="0.5"
         style="stop-color:#55d400;stop-opacity:0.49803922;" />
      <stop
         style="stop-color:#39d400;stop-opacity:0.24705882;"
         offset="0.75"
         id="stop3976" />
      <stop
         id="stop3980"
         offset="0.875"
         style="stop-color:#94d400;stop-opacity:0.24705882;" />
      <stop
         id="stop3978"
         offset="1"
         style="stop-color:#efd400;stop-opacity:0.24705882;" />
    </linearGradient>
    <marker
       inkscape:stockid="Arrow2Lstart"
       orient="auto"
       refY="0"
       refX="0"
       id="Arrow2Lstart"
       style="overflow:visible">
      <path
         id="path4366"
         style="fill-rule:evenodd;stroke-width:0.625;stroke-linejoin:round"
         d="M 8.7185878,4.0337352 -2.2072895,0.01601326 8.7185884,-4.0017078 c -1.7454984,2.3720609 -1.7354408,5.6174519 -6e-7,8.035443 z"
         transform="matrix(1.1,0,0,1.1,1.1,0)"
         inkscape:connector-curvature="0" />
    </marker>
    <marker
       inkscape:stockid="EmptyDiamondL"
       orient="auto"
       refY="0"
       refX="0"
       id="EmptyDiamondL"
       style="overflow:visible">
      <path
         id="path4454"
         d="M 0,-7.0710768 -7.0710894,0 0,7.0710589 7.0710462,0 0,-7.0710768 z"
         style="fill:#ffffff;fill-rule:evenodd;stroke:#000000;stroke-width:1pt"
         transform="scale(0.8,0.8)"
         inkscape:connector-curvature="0" />
    </marker>
    <marker
       inkscape:stockid="DiamondSstart"
       orient="auto"
       refY="0"
       refX="0"
       id="DiamondSstart"
       style="overflow:visible">
      <path
         id="path4442"
         d="M 0,-7.0710768 -7.0710894,0 0,7.0710589 7.0710462,0 0,-7.0710768 z"
         style="fill-rule:evenodd;stroke:#000000;stroke-width:1pt"
         transform="matrix(0.2,0,0,0.2,1.2,0)"
         inkscape:connector-curvature="0" />
    </marker>
    <marker
       inkscape:stockid="Arrow1Lstart"
       orient="auto"
       refY="0"
       refX="0"
       id="Arrow1Lstart"
       style="overflow:visible">
      <path
         id="path4348"
         d="M 0,0 5,-5 -12.5,0 5,5 0,0 z"
         style="fill-rule:evenodd;stroke:#000000;stroke-width:1pt"
         transform="matrix(0.8,0,0,0.8,10,0)"
         inkscape:connector-curvature="0" />
    </marker>
    <marker
       inkscape:stockid="SquareL"
       orient="auto"
       refY="0"
       refX="0"
       id="SquareL"
       style="overflow:visible">
      <path
         id="path4418"
         d="M -5,-5 -5,5 5,5 5,-5 -5,-5 z"
         style="fill-rule:evenodd;stroke:#000000;stroke-width:1pt"
         transform="scale(0.8,0.8)"
         inkscape:connector-curvature="0" />
    </marker>
    <inkscape:perspective
       sodipodi:type="inkscape:persp3d"
       inkscape:vp_x="-105.05586 : -280.83261 : 1"
       inkscape:vp_y="0 : 1000 : 0"
       inkscape:vp_z="1150 : 200 : 1"
       inkscape:persp3d-origin="575 : 133.33333 : 1"
       id="perspective4087" />
    <radialGradient
       r="97.496925"
       fy="188.21428"
       fx="236.78572"
       cy="188.21428"
       cx="236.78572"
       gradientTransform="translate(-139.2888,-90.7174)"
       gradientUnits="userSpaceOnUse"
       id="radialGradient3013"
       xlink:href="#linearGradient3684-76"
       inkscape:collect="always" />
    <radialGradient
       r="97.496925"
       fy="188.21428"
       fx="236.78572"
       cy="188.21428"
       cx="236.78572"
       gradientTransform="translate(-90.4365,1338.3028)"
       gradientUnits="userSpaceOnUse"
       id="radialGradient3004"
       xlink:href="#linearGradient3684-76"
       inkscape:collect="always" />
    <linearGradient
       id="linearGradient3684-76">
      <stop
         offset="0"
         style="stop-color:#000000;stop-opacity:1"
         id="stop3686-14" />
      <stop
         offset="0.89795917"
         style="stop-color:#000000;stop-opacity:0.86666667"
         id="stop3692-23" />
      <stop
         offset="1"
         style="stop-color:#000000;stop-opacity:0"
         id="stop3688-2" />
    </linearGradient>
    <radialGradient
       gradientTransform="translate(-90.4365,1338.3028)"
       gradientUnits="userSpaceOnUse"
       xlink:href="#linearGradient3684-76"
       id="radialGradient4894"
       fy="188.21428"
       fx="236.78572"
       r="97.496925"
       cy="188.21428"
       cx="236.78572" />
    <inkscape:path-effect
       effect="spiro"
       id="path-effect3273-8"
       is_visible="true" />
    <inkscape:path-effect
       effect="spiro"
       id="path-effect3273-3"
       is_visible="true" />
    <inkscape:path-effect
       effect="spiro"
       id="path-effect3273-3-6"
       is_visible="true" />
    <inkscape:path-effect
       effect="spiro"
       id="path-effect3273-3-0"
       is_visible="true" />
    <inkscape:path-effect
       effect="spiro"
       id="path-effect3273-3-0-5"
       is_visible="true" />
    <inkscape:path-effect
       effect="spiro"
       id="path-effect3273-3-0-6"
       is_visible="true" />
    <inkscape:path-effect
       effect="spiro"
       id="path-effect3273-2"
       is_visible="true" />
    <inkscape:path-effect
       effect="spiro"
       id="path-effect3273-8-0"
       is_visible="true" />
    <inkscape:path-effect
       effect="spiro"
       id="path-effect3273-3-1"
       is_visible="true" />
    <inkscape:path-effect
       effect="spiro"
       id="path-effect3273-3-6-7"
       is_visible="true" />
    <inkscape:path-effect
       effect="spiro"
       id="path-effect3273-3-0-8"
       is_visible="true" />
    <inkscape:path-effect
       effect="spiro"
       id="path-effect3273-3-0-5-1"
       is_visible="true" />
    <inkscape:path-effect
       effect="spiro"
       id="path-effect3273-3-0-6-5"
       is_visible="true" />
    <path
       transform="matrix(-1.655217,1.5156218,-1.8633661,-2.0349941,554.10899,812.95323)"
       d="m 6.0609169,-68.571419 a 43.030457,35 0 1 1 -86.0609129,0 43.030457,35 0 1 1 86.0609129,0 z"
       sodipodi:ry="35"
       sodipodi:rx="43.030457"
       sodipodi:cy="-68.571419"
       sodipodi:cx="-36.96954"
       id="path3981-2-1-6-7-5-0-3-3-9"
       style="fill:none;stroke:none;display:inline"
       sodipodi:type="arc" />
    <inkscape:path-effect
       effect="spiro"
       id="path-effect3273-9"
       is_visible="true" />
    <inkscape:path-effect
       effect="spiro"
       id="path-effect3273-8-3"
       is_visible="true" />
    <inkscape:path-effect
       effect="spiro"
       id="path-effect3273-3-2"
       is_visible="true" />
    <inkscape:path-effect
       effect="spiro"
       id="path-effect3273-3-6-0"
       is_visible="true" />
    <inkscape:path-effect
       effect="spiro"
       id="path-effect3273-3-0-1"
       is_visible="true" />
    <inkscape:path-effect
       effect="spiro"
       id="path-effect3273-3-0-5-8"
       is_visible="true" />
    <inkscape:path-effect
       effect="spiro"
       id="path-effect3273-3-0-6-3"
       is_visible="true" />
  </defs>
  <sodipodi:namedview
     id="base"
     pagecolor="#ffffff"
     bordercolor="#666666"
     borderopacity="1.0"
     inkscape:pageopacity="0.0"
     inkscape:pageshadow="2"
     inkscape:zoom="0.68587244"
     inkscape:cx="583.19882"
     inkscape:cy="427.19314"
     inkscape:document-units="px"
     inkscape:current-layer="layer1"
     showgrid="false"
     inkscape:window-width="1848"
     inkscape:window-height="1016"
     inkscape:window-x="72"
     inkscape:window-y="27"
     inkscape:window-maximized="1"
     showguides="true"
     inkscape:guide-bbox="true"
     width="1150px"
     inkscape:snap-center="true"
     inkscape:showpageshadow="2"
     inkscape:pagecheckerboard="0"
     inkscape:deskcolor="#d1d1d1" />
  <metadata
     id="metadata7">
    <rdf:RDF>
      <cc:Work
         rdf:about="">
        <dc:format>image/svg+xml</dc:format>
        <dc:type
           rdf:resource="http://purl.org/dc/dcmitype/StillImage" />
      </cc:Work>
    </rdf:RDF>
  </metadata>
  <g
     inkscape:label="Ebene 1"
     inkscape:groupmode="layer"
     id="layer1"
     transform="translate(0,-767.3622)"
     style="display:inline">
    <g
       transform="matrix(0.91666939,0.00891669,-0.008729,0.91623053,14.672869,82.666835)"
       id="g3831-9-3-1-6-3"
       style="fill:none;stroke:#cfcfcf;stroke-width:1.46722198;stroke-linecap:round;stroke-miterlimit:4;stroke-opacity:1;stroke-dasharray:none;display:inline" />
    <g
       aria-label="['ø:mɔf]"
       style="font-style:normal;font-weight:normal;line-height:0%;font-family:sans-serif;letter-spacing:0px;word-spacing:0px;fill:#646464;fill-opacity:1;stroke:none"
       id="text2997-0-4">
      <path
         d="m 355.832,912.20768 h -25.11 v 127.03502 h 25.11 v -9.72 H 341.927 V 921.92768 h 13.905 z"
         style="font-style:normal;font-variant:normal;font-weight:normal;font-stretch:normal;font-size:135px;line-height:1.25;font-family:FreeSans;-inkscape-font-specification:FreeSans;letter-spacing:10px;fill:#646464;fill-opacity:1"
         id="path2306" />
      <path
         d="m 376.67841,914.90768 v 14.985 l 3.645,18.09 h 5.4 l 3.645,-18.09 v -14.985 z"
         style="font-style:normal;font-variant:normal;font-weight:normal;font-stretch:normal;font-size:135px;line-height:1.25;font-family:FreeSans;-inkscape-font-specification:FreeSans;letter-spacing:10px;fill:#646464;fill-opacity:1"
         id="path2308" />
      <path
         d="m 476.75294,941.63768 -4.32,-3.78 -7.83,8.775 c -6.075,-6.075 -13.095,-8.775 -22.41,-8.775 -19.98,0 -31.995,14.175 -31.995,37.935 0,10.53 2.025,18.495 6.48,25.11002 l -8.91,9.99 4.32,3.78 8.235,-9.315 c 5.4,5.535 12.96,8.37 22.005,8.37 19.98,0 31.86,-14.17502 31.86,-37.93502 0,-10.26 -1.89,-17.82 -5.94,-24.57 z m -16.74,18.9 c 1.62,4.185 2.43,9.315 2.43,15.255 0,17.01 -7.695,27.54002 -20.25,27.54002 -5.67,0 -10.395,-2.16 -14.31,-6.48002 z m -35.235,31.05 c -1.89,-4.455 -2.835,-9.45 -2.835,-15.795 0,-17.01 7.695,-27.54 20.25,-27.54 5.94,0 11.34,2.565 14.85,7.02 z"
         style="font-style:normal;font-variant:normal;font-weight:normal;font-stretch:normal;font-size:135px;line-height:1.25;font-family:FreeSans;-inkscape-font-specification:FreeSans;letter-spacing:10px;fill:#646464;fill-opacity:1"
         id="path2310" />
      <path
         d="m 513.24036,996.58268 h -14.04 v 14.04002 h 14.04 z m 0,-56.7 h -14.04 v 14.04 h 14.04 z"
         style="font-style:normal;font-variant:normal;font-weight:normal;font-stretch:normal;font-size:135px;line-height:1.25;font-family:FreeSans;-inkscape-font-specification:FreeSans;letter-spacing:10px;fill:#646464;fill-opacity:1"
         id="path2312" />
      <path
         d="m 540.25036,939.88268 v 70.74002 h 11.34 v -44.41502 c 0,-10.26 7.425,-18.495 16.605,-18.495 8.37,0 13.095,5.13 13.095,14.175 v 48.73502 h 11.34 v -44.41502 c 0,-10.26 7.425,-18.495 16.605,-18.495 8.235,0 13.095,5.265 13.095,14.175 v 48.73502 h 11.34 v -53.05502 c 0,-12.69 -7.29,-19.71 -20.52,-19.71 -9.45,0 -15.12,2.835 -21.735,10.8 -4.185,-7.56 -9.855,-10.8 -19.035,-10.8 -9.45,0 -15.66,3.51 -21.735,12.015 v -9.99 z"
         style="font-style:normal;font-variant:normal;font-weight:normal;font-stretch:normal;font-size:135px;line-height:1.25;font-family:FreeSans;-inkscape-font-specification:FreeSans;letter-spacing:10px;fill:#646464;fill-opacity:1"
         id="path2314" />
      <path
         d="m 656.69786,987.94268 c 1.35,16.87502 11.745,25.78502 27.945,25.78502 19.035,0 31.455,-15.12002 31.455,-38.61002 0,-22.815 -12.15,-37.26 -31.32,-37.26 -16.875,0 -27.54,10.125 -28.89,27.405 h 11.34 c 1.89,-11.34 7.695,-17.01 17.28,-17.01 12.42,0 19.845,10.125 19.845,26.865 0,17.685 -7.29,28.21502 -19.575,28.21502 -9.45,0 -15.39,-5.53502 -16.74,-15.39002 z"
         style="font-style:normal;font-variant:normal;font-weight:normal;font-stretch:normal;font-size:135px;line-height:1.25;font-family:FreeSans;-inkscape-font-specification:FreeSans;letter-spacing:10px;fill:#646464;fill-opacity:1"
         id="path2316" />
      <path
         d="m 765.22888,939.88268 h -11.745 v -11.07 c 0,-4.725 2.7,-7.155 7.83,-7.155 0.945,0 1.35,0 3.915,0.135 v -9.315 c -2.565,-0.54 -4.05,-0.675 -6.345,-0.675 -10.395,0 -16.605,5.94 -16.605,16.065 v 12.015 h -9.45 v 9.18 h 9.45 v 61.56002 h 11.205 v -61.56002 h 11.745 z"
         style="font-style:normal;font-variant:normal;font-weight:normal;font-stretch:normal;font-size:135px;line-height:1.25;font-family:FreeSans;-inkscape-font-specification:FreeSans;letter-spacing:10px;fill:#646464;fill-opacity:1"
         id="path2318" />
      <path
         d="m 780.80395,1039.2427 h 25.11 V 912.20768 h -25.11 v 9.72 h 13.905 v 107.59502 h -13.905 z"
         style="font-style:normal;font-variant:normal;font-weight:normal;font-stretch:normal;font-size:135px;line-height:1.25;font-family:FreeSans;-inkscape-font-specification:FreeSans;letter-spacing:10px;fill:#646464;fill-opacity:1"
         id="path2320" />
    </g>
    <g
       aria-label="oemof"
       style="font-style:normal;font-weight:normal;line-height:0%;font-family:sans-serif;letter-spacing:0px;word-spacing:0px;fill:#000000;fill-opacity:1;stroke:none"
       id="text2987-2">
      <path
         d="m 361.992,803.77284 c -19.845,0 -31.86,14.175 -31.86,37.935 0,23.76 11.88,37.935 31.995,37.935 19.845,0 31.995,-14.175 31.995,-37.395 0,-24.435 -11.745,-38.475 -32.13,-38.475 z m 0.135,10.395 c 12.69,0 20.25,10.395 20.25,27.945 0,16.605 -7.83,27.135 -20.25,27.135 -12.555,0 -20.25,-10.395 -20.25,-27.54 0,-17.01 7.695,-27.54 20.25,-27.54 z"
         style="font-style:normal;font-variant:normal;font-weight:normal;font-stretch:normal;font-size:135px;line-height:0%;font-family:FreeSans;-inkscape-font-specification:FreeSans;letter-spacing:30px;writing-mode:lr-tb"
         id="path2295" />
      <path
         d="m 495.96942,844.94784 c 0,-25.65 -9.585,-41.175 -31.455,-41.175 -19.71,0 -32.4,15.12 -32.4,38.34 0,23.22 12.285,37.53 32.13,37.53 16.2,0 27.405,-9.18 30.24,-24.57 h -11.34 c -3.105,9.315 -9.45,14.175 -18.495,14.175 -13.095,0 -20.52,-9.855 -20.79,-24.3 z m -51.84,-9.18 c 0.945,-13.095 8.91,-21.6 20.25,-21.6 11.61,0 19.575,9.45 19.575,21.6 z"
         style="font-style:normal;font-variant:normal;font-weight:normal;font-stretch:normal;font-size:135px;line-height:0%;font-family:FreeSans;-inkscape-font-specification:FreeSans;letter-spacing:30px;writing-mode:lr-tb"
         id="path2297" />
      <path
         d="m 538.14684,805.79784 v 70.74 h 11.34 v -44.415 c 0,-10.26 7.425,-18.495 16.605,-18.495 8.37,0 13.095,5.13 13.095,14.175 v 48.735 h 11.34 v -44.415 c 0,-10.26 7.425,-18.495 16.605,-18.495 8.235,0 13.095,5.265 13.095,14.175 v 48.735 h 11.34 v -53.055 c 0,-12.69 -7.29,-19.71 -20.52,-19.71 -9.45,0 -15.12,2.835 -21.735,10.8 -4.185,-7.56 -9.855,-10.8 -19.035,-10.8 -9.45,0 -15.66,3.51 -21.735,12.015 v -9.99 z"
         style="font-style:normal;font-variant:normal;font-weight:normal;font-stretch:normal;font-size:135px;line-height:0%;font-family:FreeSans;-inkscape-font-specification:FreeSans;letter-spacing:30px;writing-mode:lr-tb"
         id="path2299" />
      <path
         d="m 705.64434,803.77284 c -19.845,0 -31.86,14.175 -31.86,37.935 0,23.76 11.88,37.935 31.995,37.935 19.845,0 31.995,-14.175 31.995,-37.395 0,-24.435 -11.745,-38.475 -32.13,-38.475 z m 0.135,10.395 c 12.69,0 20.25,10.395 20.25,27.945 0,16.605 -7.83,27.135 -20.25,27.135 -12.555,0 -20.25,-10.395 -20.25,-27.54 0,-17.01 7.695,-27.54 20.25,-27.54 z"
         style="font-style:normal;font-variant:normal;font-weight:normal;font-stretch:normal;font-size:135px;line-height:0%;font-family:FreeSans;-inkscape-font-specification:FreeSans;letter-spacing:30px;writing-mode:lr-tb"
         id="path2301" />
      <path
         d="m 806.81677,805.79784 h -11.745 v -11.07 c 0,-4.725 2.7,-7.155 7.83,-7.155 0.945,0 1.35,0 3.915,0.135 v -9.315 c -2.565,-0.54 -4.05,-0.675 -6.345,-0.675 -10.395,0 -16.605,5.94 -16.605,16.065 v 12.015 h -9.45 v 9.18 h 9.45 v 61.56 h 11.205 v -61.56 h 11.745 z"
         style="font-style:normal;font-variant:normal;font-weight:normal;font-stretch:normal;font-size:135px;line-height:0%;font-family:FreeSans;-inkscape-font-specification:FreeSans;letter-spacing:30px;writing-mode:lr-tb"
         id="path2303" />
    </g>
    <path
       id="path3981-2-1-6-7-5-0-4-4-8-3"
       style="display:inline;opacity:1;vector-effect:none;fill:#1f567d;stroke-width:1.5219"
       transform="rotate(137.52083)"
       d="m 571.88563,-774.83881 a 59.061836,59.061836 0 0 1 -59.06184,59.06184 59.061836,59.061836 0 0 1 -59.06183,-59.06184 59.061836,59.061836 0 0 1 59.06183,-59.06183 59.061836,59.061836 0 0 1 59.06184,59.06183 z" />
    <path
       id="path3981-2-1-6-7-5-0-4-4-8-3-3"
       style="display:inline;opacity:1;vector-effect:none;fill:none;stroke:#1f567d;stroke-width:55"
       transform="rotate(90.00083)"
       d="m 1016.6753,-87.910377 a 114.29869,114.29869 0 0 1 -128.56828,53.254712 114.29869,114.29869 0 0 1 -84.71601,-110.404055 114.29869,114.29869 0 0 1 84.71601,-110.40406 114.29869,114.29869 0 0 1 128.56828,53.25471" />
  </g>
</svg>
