<?xml version="1.0" encoding="UTF-8" standalone="no"?>
<!-- Created with Inkscape (http://www.inkscape.org/) -->

<svg
   width="452.00174"
   height="560.25757"
   id="svg2"
   version="1.1"
   inkscape:version="1.3.2 (1:1.3.2+202311252150+091e20ef0f)"
   sodipodi:docname="shirt_logo_back_gray.svg"
   inkscape:export-filename="/home/leppi/Dokumente/ZNES/Oemof/oemof_logo/done/logo_oemof_vec_inkscape_mid_300DPI.png"
   inkscape:export-xdpi="300"
   inkscape:export-ydpi="300"
   xmlns:inkscape="http://www.inkscape.org/namespaces/inkscape"
   xmlns:sodipodi="http://sodipodi.sourceforge.net/DTD/sodipodi-0.dtd"
   xmlns:xlink="http://www.w3.org/1999/xlink"
   xmlns="http://www.w3.org/2000/svg"
   xmlns:svg="http://www.w3.org/2000/svg"
   xmlns:rdf="http://www.w3.org/1999/02/22-rdf-syntax-ns#"
   xmlns:cc="http://creativecommons.org/ns#"
   xmlns:dc="http://purl.org/dc/elements/1.1/">
  <defs
     id="defs4">
    <rect
       x="284.73517"
       y="152.08408"
       width="252.10138"
       height="101.45519"
       id="rect15" />
    <inkscape:path-effect
       effect="spiro"
       id="path-effect4646"
       is_visible="true"
       lpeversion="0" />
    <inkscape:path-effect
       effect="spiro"
       id="path-effect4642"
       is_visible="true"
       lpeversion="0" />
    <inkscape:path-effect
       effect="spiro"
       id="path-effect4638"
       is_visible="true"
       lpeversion="0" />
    <inkscape:path-effect
       effect="spiro"
       id="path-effect3273"
       is_visible="true"
       lpeversion="0" />
    <inkscape:path-effect
       effect="spiro"
       id="path-effect3265"
       is_visible="true"
       lpeversion="0" />
    <inkscape:path-effect
       effect="spiro"
       id="path-effect3261"
       is_visible="true"
       lpeversion="0" />
    <inkscape:path-effect
       effect="spiro"
       id="path-effect3257"
       is_visible="true"
       lpeversion="0" />
    <linearGradient
       id="linearGradient3960">
      <stop
         id="stop3972"
         offset="0"
         style="stop-color:#55d400;stop-opacity:0.74901961;" />
      <stop
         id="stop3970"
         offset="0.5"
         style="stop-color:#55d400;stop-opacity:0.49803922;" />
      <stop
         style="stop-color:#39d400;stop-opacity:0.24705882;"
         offset="0.75"
         id="stop3976" />
      <stop
         id="stop3980"
         offset="0.875"
         style="stop-color:#94d400;stop-opacity:0.24705882;" />
      <stop
         id="stop3978"
         offset="1"
         style="stop-color:#efd400;stop-opacity:0.24705882;" />
    </linearGradient>
    <marker
       inkscape:stockid="Arrow2Lstart"
       orient="auto"
       refY="0"
       refX="0"
       id="Arrow2Lstart"
       style="overflow:visible">
      <path
         id="path4366"
         style="fill-rule:evenodd;stroke-width:0.625;stroke-linejoin:round"
         d="M 8.7185878,4.0337352 -2.2072895,0.01601326 8.7185884,-4.0017078 c -1.7454984,2.3720609 -1.7354408,5.6174519 -6e-7,8.035443 z"
         transform="matrix(1.1,0,0,1.1,1.1,0)"
         inkscape:connector-curvature="0" />
    </marker>
    <marker
       inkscape:stockid="EmptyDiamondL"
       orient="auto"
       refY="0"
       refX="0"
       id="EmptyDiamondL"
       style="overflow:visible">
      <path
         id="path4454"
         d="M 0,-7.0710768 -7.0710894,0 0,7.0710589 7.0710462,0 Z"
         style="fill:#ffffff;fill-rule:evenodd;stroke:#000000;stroke-width:1pt"
         transform="scale(0.8)"
         inkscape:connector-curvature="0" />
    </marker>
    <marker
       inkscape:stockid="DiamondSstart"
       orient="auto"
       refY="0"
       refX="0"
       id="DiamondSstart"
       style="overflow:visible">
      <path
         id="path4442"
         d="M 0,-7.0710768 -7.0710894,0 0,7.0710589 7.0710462,0 Z"
         style="fill-rule:evenodd;stroke:#000000;stroke-width:1pt"
         transform="matrix(0.2,0,0,0.2,1.2,0)"
         inkscape:connector-curvature="0" />
    </marker>
    <marker
       inkscape:stockid="Arrow1Lstart"
       orient="auto"
       refY="0"
       refX="0"
       id="Arrow1Lstart"
       style="overflow:visible">
      <path
         id="path4348"
         d="M 0,0 5,-5 -12.5,0 5,5 Z"
         style="fill-rule:evenodd;stroke:#000000;stroke-width:1pt"
         transform="matrix(0.8,0,0,0.8,10,0)"
         inkscape:connector-curvature="0" />
    </marker>
    <marker
       inkscape:stockid="SquareL"
       orient="auto"
       refY="0"
       refX="0"
       id="SquareL"
       style="overflow:visible">
      <path
         id="path4418"
         d="M -5,-5 V 5 H 5 V -5 Z"
         style="fill-rule:evenodd;stroke:#000000;stroke-width:1pt"
         transform="scale(0.8)"
         inkscape:connector-curvature="0" />
    </marker>
    <inkscape:perspective
       sodipodi:type="inkscape:persp3d"
       inkscape:vp_x="-105.05586 : -5.5750416 : 1"
       inkscape:vp_y="0 : 1000 : 0"
       inkscape:vp_z="1150 : 475.25757 : 1"
       inkscape:persp3d-origin="575 : 408.5909 : 1"
       id="perspective4087" />
    <radialGradient
       r="97.496925"
       fy="188.21428"
       fx="236.78572"
       cy="188.21428"
       cx="236.78572"
       gradientTransform="translate(-139.2888,-90.7174)"
       gradientUnits="userSpaceOnUse"
       id="radialGradient3013"
       xlink:href="#linearGradient3684-76"
       inkscape:collect="always" />
    <radialGradient
       r="97.496925"
       fy="188.21428"
       fx="236.78572"
       cy="188.21428"
       cx="236.78572"
       gradientTransform="translate(-90.4365,1338.3028)"
       gradientUnits="userSpaceOnUse"
       id="radialGradient3004"
       xlink:href="#linearGradient3684-76"
       inkscape:collect="always" />
    <linearGradient
       id="linearGradient3684-76">
      <stop
         offset="0"
         style="stop-color:#000000;stop-opacity:1"
         id="stop3686-14" />
      <stop
         offset="0.89795917"
         style="stop-color:#000000;stop-opacity:0.86666667"
         id="stop3692-23" />
      <stop
         offset="1"
         style="stop-color:#000000;stop-opacity:0"
         id="stop3688-2" />
    </linearGradient>
    <radialGradient
       gradientTransform="translate(-90.4365,1338.3028)"
       gradientUnits="userSpaceOnUse"
       xlink:href="#linearGradient3684-76"
       id="radialGradient4894"
       fy="188.21428"
       fx="236.78572"
       r="97.496925"
       cy="188.21428"
       cx="236.78572" />
    <inkscape:path-effect
       effect="spiro"
       id="path-effect3273-8"
       is_visible="true"
       lpeversion="0" />
    <inkscape:path-effect
       effect="spiro"
       id="path-effect3273-3"
       is_visible="true"
       lpeversion="0" />
    <inkscape:path-effect
       effect="spiro"
       id="path-effect3273-3-6"
       is_visible="true"
       lpeversion="0" />
    <inkscape:path-effect
       effect="spiro"
       id="path-effect3273-3-0"
       is_visible="true"
       lpeversion="0" />
    <inkscape:path-effect
       effect="spiro"
       id="path-effect3273-3-0-5"
       is_visible="true"
       lpeversion="0" />
    <inkscape:path-effect
       effect="spiro"
       id="path-effect3273-3-0-6"
       is_visible="true"
       lpeversion="0" />
    <inkscape:path-effect
       effect="spiro"
       id="path-effect3273-2"
       is_visible="true"
       lpeversion="0" />
    <inkscape:path-effect
       effect="spiro"
       id="path-effect3273-8-0"
       is_visible="true"
       lpeversion="0" />
    <inkscape:path-effect
       effect="spiro"
       id="path-effect3273-3-1"
       is_visible="true"
       lpeversion="0" />
    <inkscape:path-effect
       effect="spiro"
       id="path-effect3273-3-6-7"
       is_visible="true"
       lpeversion="0" />
    <inkscape:path-effect
       effect="spiro"
       id="path-effect3273-3-0-8"
       is_visible="true"
       lpeversion="0" />
    <inkscape:path-effect
       effect="spiro"
       id="path-effect3273-3-0-5-1"
       is_visible="true"
       lpeversion="0" />
    <inkscape:path-effect
       effect="spiro"
       id="path-effect3273-3-0-6-5"
       is_visible="true"
       lpeversion="0" />
    <ellipse
       transform="matrix(-1.655217,1.5156218,-1.8633661,-2.0349941,554.10899,812.95323)"
       id="path3981-2-1-6-7-5-0-3-3-9"
       style="display:inline;fill:none;stroke:none"
       cx="-36.96954"
       cy="-68.571419"
       rx="43.030457"
       ry="35" />
    <inkscape:path-effect
       effect="spiro"
       id="path-effect3273-9"
       is_visible="true"
       lpeversion="0" />
    <inkscape:path-effect
       effect="spiro"
       id="path-effect3273-8-3"
       is_visible="true"
       lpeversion="0" />
    <inkscape:path-effect
       effect="spiro"
       id="path-effect3273-3-2"
       is_visible="true"
       lpeversion="0" />
    <inkscape:path-effect
       effect="spiro"
       id="path-effect3273-3-6-0"
       is_visible="true"
       lpeversion="0" />
    <inkscape:path-effect
       effect="spiro"
       id="path-effect3273-3-0-1"
       is_visible="true"
       lpeversion="0" />
    <inkscape:path-effect
       effect="spiro"
       id="path-effect3273-3-0-5-8"
       is_visible="true"
       lpeversion="0" />
    <inkscape:path-effect
       effect="spiro"
       id="path-effect3273-3-0-6-3"
       is_visible="true"
       lpeversion="0" />
  </defs>
  <sodipodi:namedview
     id="base"
     pagecolor="#ffffff"
     bordercolor="#666666"
     borderopacity="1.0"
     inkscape:pageopacity="0.0"
     inkscape:pageshadow="2"
     inkscape:zoom="1"
     inkscape:cx="240"
     inkscape:cy="263"
     inkscape:document-units="px"
     inkscape:current-layer="layer1"
     showgrid="false"
     inkscape:window-width="1848"
     inkscape:window-height="1016"
     inkscape:window-x="72"
     inkscape:window-y="27"
     inkscape:window-maximized="1"
     showguides="true"
     inkscape:guide-bbox="true"
     width="1150px"
     inkscape:snap-center="true"
     inkscape:showpageshadow="2"
     inkscape:pagecheckerboard="0"
     inkscape:deskcolor="#d1d1d1">
    <inkscape:grid
       id="grid4"
       units="px"
       originx="0"
       originy="0"
       spacingx="1"
       spacingy="1"
       empcolor="#0099e5"
       empopacity="0.30196078"
       color="#0099e5"
       opacity="0.14901961"
       empspacing="5"
       dotted="false"
       gridanglex="30"
       gridanglez="30"
       visible="false" />
  </sodipodi:namedview>
  <metadata
     id="metadata7">
    <rdf:RDF>
      <cc:Work
         rdf:about="">
        <dc:format>image/svg+xml</dc:format>
        <dc:type
           rdf:resource="http://purl.org/dc/dcmitype/StillImage" />
      </cc:Work>
    </rdf:RDF>
  </metadata>
  <g
     inkscape:label="Ebene 1"
     inkscape:groupmode="layer"
     id="layer1"
     transform="translate(-1484.1488,-1265.9406)"
     style="display:inline">
    <path
       style="font-size:98.6369px;line-height:1.25;font-family:FreeSans;-inkscape-font-specification:FreeSans;letter-spacing:0px;word-spacing:0px;fill:#646464;stroke-width:0.513736;fill-opacity:1"
       d="m 1284.287,-1930.6269 v 7.1019 h -10.1596 v 78.6136 h 10.1596 v 7.1018 h -18.3464 v -92.8173 z m 19.7274,97.4533 h -7.1019 v -19.4315 h 7.1019 z m 55.9271,-48.628 q 0.099,5.1291 1.5782,8.8773 1.4795,3.6496 3.8468,5.5237 2.3673,1.7754 4.7346,2.5645 2.4659,0.7891 5.0304,0.7891 9.9624,0 13.6119,-10.3568 h 8.2855 q -1.5782,8.3841 -7.3977,13.2173 -5.8196,4.7346 -14.5983,4.7346 -13.4146,0 -18.9383,-10.5542 -0.1973,-0.1973 -0.1973,-0.2959 -5.5236,5.7209 -10.5541,8.2855 -4.9318,2.5646 -10.7514,2.5646 -7.4964,0 -12.0337,-4.1428 -4.5373,-4.1427 -4.5373,-11.146 0,-3.7482 1.2823,-6.51 1.2822,-2.8605 3.3536,-4.6359 2.0714,-1.7755 5.5237,-2.9591 3.4523,-1.1837 6.9046,-1.7755 3.5509,-0.5918 8.5814,-0.9864 5.0305,-0.3945 6.8059,-1.6768 1.7755,-1.2823 1.7755,-4.1427 v -2.1701 q 0,-7.6936 -11.6392,-7.6936 -11.0473,0 -12.0337,9.1732 h -8.2855 q 0.5918,-16.7683 20.5165,-16.7683 12.6255,0 17.2615,8.0883 2.6632,-3.7482 7.2005,-5.9183 4.5373,-2.17 9.8636,-2.17 7.2005,0 12.7242,3.6496 5.5237,3.6496 8.0882,9.9623 2.0714,5.4251 2.0714,16.4724 z m -23.4756,18.1492 q 6.9046,0 11.3432,-3.9455 4.4387,-4.0441 4.4387,-6.6087 v -9.9623 q -2.9591,1.2823 -8.0882,2.17 -5.0305,0.7891 -8.5815,1.2823 -3.4522,0.4932 -6.2141,2.6632 -2.7618,2.17 -2.7618,6.1155 0,3.8468 2.6632,6.1155 2.6632,2.17 7.2005,2.17 z m 23.6728,-24.8565 h 28.9993 q 0,-7.0032 -3.9455,-11.3433 -3.9455,-4.4386 -10.2582,-4.4386 -6.2142,0 -10.2583,4.34 -4.0441,4.2414 -4.5373,11.4419 z m 47.0498,-21.8974 h 7.595 v 8.68 q 3.4523,-5.425 7.3978,-7.7923 4.0441,-2.3673 9.7651,-2.3673 7.4964,0 11.935,3.8469 4.4387,3.8468 4.4387,10.2582 v 39.0602 h -8.1869 v -35.8052 q 0,-4.6359 -2.8605,-7.3977 -2.8604,-2.7619 -7.7923,-2.7619 -6.3127,0 -10.1596,4.8332 -3.8468,4.7346 -3.8468,12.6256 v 28.506 h -8.2855 z m 49.9102,0 h 23.4756 v 7.1018 h -7.2005 v 37.4821 h 7.2005 v 7.1018 h -23.4756 v -7.1018 h 8.0883 v -37.4821 h -8.0883 z m 45.373,-6.3128 h -7.1019 v -19.4314 h 7.1019 z m 41.033,57.9985 h -8.976 l -18.1492,-51.6857 h 9.2719 l 13.8091,41.9207 14.5983,-41.9207 h 9.2719 z m 33.4379,-15.3873 q 0.5918,4.6359 3.1564,7.3977 2.6632,2.6632 9.4691,2.6632 5.3264,0 8.4828,-2.17 3.1564,-2.2686 3.1564,-5.9182 0,-3.0577 -2.9591,-5.7209 -2.8605,-2.6632 -7.1019,-2.6632 h -7.2991 v -7.4964 h 6.1155 q 4.7345,0 7.1018,-2.5646 2.4659,-2.6632 2.4659,-5.9182 0,-3.5509 -2.9591,-5.6223 -2.9591,-2.17 -7.9896,-2.17 -10.0609,0 -10.3568,8.2855 h -8.6801 q 0.099,-7.5951 4.9319,-11.7378 4.8332,-4.1428 13.8091,-4.1428 8.976,0 14.401,4.3401 5.425,4.2413 5.425,11.4418 0,7.3978 -6.4114,11.0474 8.4828,3.7482 8.4828,12.2309 0,7.4964 -5.8196,11.9351 -5.7209,4.4387 -15.486,4.4387 -20.0232,0 -20.6151,-17.656 z m 59.5767,15.3873 h -12.4282 l 6.2141,-11.2446 z m -12.4282,-53.8557 h 12.4282 l -6.2141,11.2446 z m 34.7202,38.4684 q 0.5918,4.6359 3.1564,7.3977 2.6632,2.6632 9.4691,2.6632 5.425,0 8.6801,-2.17 3.3536,-2.2686 3.3536,-5.9182 0,-2.8605 -1.8741,-4.5373 -1.8741,-1.6768 -6.1155,-2.6632 l -7.6937,-1.8741 q -9.1732,-2.17 -12.8227,-5.425 -3.551,-3.3537 -3.551,-9.4692 0,-7.2005 5.4251,-11.4418 5.425,-4.3401 14.4009,-4.3401 8.976,0 13.8092,4.1428 4.8332,4.1427 4.9319,11.7378 h -8.6801 q -0.2959,-8.2855 -10.3569,-8.2855 -5.0305,0 -7.9896,2.17 -2.9591,2.0714 -2.9591,5.6223 0,2.7618 2.2687,4.5373 2.2686,1.6768 7.2991,2.8605 l 7.891,1.8741 q 7.6936,1.8741 11.1459,5.3263 3.4523,3.3537 3.4523,9.0746 0,7.4964 -5.8196,11.9351 -5.7209,4.4387 -15.4859,4.4387 -20.0233,0 -20.6152,-17.656 z m 41.2302,-12.4283 h 38.0738 q -0.099,-7.1018 -2.7618,-11.0473 -4.2414,-6.7073 -12.4283,-6.7073 -10.0609,0 -13.5132,10.3568 h -8.2855 q 1.5782,-8.4827 7.3978,-13.2173 5.8195,-4.7346 14.6969,-4.7346 10.85,0 17.1628,7.3978 6.3127,7.2991 6.3127,20.0233 0,12.7241 -6.51,20.4178 -6.4114,7.5951 -17.1628,7.5951 -7.2991,0 -12.9215,-3.6496 -5.5236,-3.6496 -7.9895,-9.9623 -2.0714,-5.4251 -2.0714,-16.4724 z m 37.8766,6.7073 h -28.9993 q -0.099,0.1973 -0.099,0.5918 0,6.4114 4.1427,10.8501 4.1428,4.34 10.1596,4.34 6.2141,0 10.2583,-4.2414 4.0441,-4.34 4.5373,-11.5405 z m 44.6825,-23.3769 q -8.2855,0.1973 -12.4283,3.8468 -4.1427,3.6496 -4.1427,13.8092 v 26.8292 h -8.2855 v -51.6857 h 7.595 v 9.3705 q 3.5509,-5.8196 6.8059,-8.2855 3.3537,-2.5646 7.2992,-2.5646 1.085,0 3.1564,0.2959 z m 15.9792,-7.2005 v 51.6857 h -8.1869 v -51.6857 z m 0,-20.2206 v 10.3569 h -8.2855 v -10.3569 z m 9.2719,92.8173 v -7.1018 h 10.1596 v -78.6136 h -10.1596 v -7.1019 h 18.3464 v 92.8173 z"
       id="text710-3"
       transform="rotate(90)"
       aria-label="[ˌænɪˈvɜːsəri]" />
    <g
       id="g1"
       transform="translate(-2.9736209,0.82947176)">
      <path
         d="m 1666.0577,1388.8567 h 2.7747 v 2.7746 h -2.7747 z m 2.7747,0 h 2.7744 v 2.7746 h -2.7744 z m 2.7744,0 h 2.7745 v 2.7746 h -2.7745 z m 2.7745,0 h 2.7746 v 2.7746 h -2.7746 z m 2.7746,0 h 2.7744 v 2.7746 h -2.7744 z m 2.7744,0 h 2.7745 v 2.7746 h -2.7745 z m 2.7745,0 h 2.7744 v 2.7746 h -2.7744 z m 8.3235,0 h 2.7745 v 2.7746 h -2.7745 z m 2.7745,0 h 2.7746 v 2.7746 h -2.7746 z m 2.7746,0 h 2.7745 v 2.7746 h -2.7745 z m 5.5489,0 h 2.7745 v 2.7746 h -2.7745 z m 5.5491,0 h 2.7745 v 2.7746 h -2.7745 z m 8.3236,0 h 2.7744 v 2.7746 h -2.7744 z m 2.7744,0 h 2.7745 v 2.7746 h -2.7745 z m 2.7745,0 h 2.7744 v 2.7746 h -2.7744 z m 2.7744,0 h 2.7746 v 2.7746 h -2.7746 z m 2.7746,0 h 2.7745 v 2.7746 h -2.7745 z m 2.7745,0 h 2.7744 v 2.7746 h -2.7744 z m 2.7744,0 h 2.7745 v 2.7746 h -2.7745 z m -66.5881,2.7746 h 2.7747 v 2.7745 h -2.7747 z m 16.6471,0 h 2.7744 v 2.7745 h -2.7744 z m 11.098,0 h 2.7746 v 2.7745 h -2.7746 z m 8.3235,0 h 2.7745 v 2.7745 h -2.7745 z m 2.7745,0 h 2.7746 v 2.7745 h -2.7746 z m 2.7746,0 h 2.7745 v 2.7745 h -2.7745 z m 2.7745,0 h 2.7744 v 2.7745 h -2.7744 z m 5.5491,0 h 2.7744 v 2.7745 h -2.7744 z m 16.6468,0 h 2.7745 v 2.7745 h -2.7745 z m -66.5881,2.7745 h 2.7747 v 2.7746 h -2.7747 z m 5.5491,0 h 2.7745 v 2.7746 h -2.7745 z m 2.7745,0 h 2.7746 v 2.7746 h -2.7746 z m 2.7746,0 h 2.7744 v 2.7746 h -2.7744 z m 5.5489,0 h 2.7744 v 2.7746 h -2.7744 z m 5.5491,0 h 2.7744 v 2.7746 h -2.7744 z m 5.5489,0 h 2.7746 v 2.7746 h -2.7746 z m 2.7746,0 h 2.7745 v 2.7746 h -2.7745 z m 2.7745,0 h 2.7744 v 2.7746 h -2.7744 z m 2.7744,0 h 2.7745 v 2.7746 h -2.7745 z m 8.3236,0 h 2.7744 v 2.7746 h -2.7744 z m 5.5491,0 h 2.7744 v 2.7746 h -2.7744 z m 5.5489,0 h 2.7744 v 2.7746 h -2.7744 z m 2.7744,0 h 2.7746 v 2.7746 h -2.7746 z m 2.7746,0 h 2.7745 v 2.7746 h -2.7745 z m 5.5489,0 h 2.7745 v 2.7746 h -2.7745 z m -66.5881,2.7746 h 2.7747 v 2.7744 h -2.7747 z m 5.5491,0 h 2.7745 v 2.7744 h -2.7745 z m 2.7745,0 h 2.7746 v 2.7744 h -2.7746 z m 2.7746,0 h 2.7744 v 2.7744 h -2.7744 z m 5.5489,0 h 2.7744 v 2.7744 h -2.7744 z m 5.5491,0 h 2.7744 v 2.7744 h -2.7744 z m 2.7744,0 h 2.7745 v 2.7744 h -2.7745 z m 2.7745,0 h 2.7744 v 2.7744 h -2.7744 z m 11.098,0 h 2.7746 v 2.7744 h -2.7746 z m 2.7746,0 h 2.7745 v 2.7744 h -2.7745 z m 8.3236,0 h 2.7744 v 2.7744 h -2.7744 z m 5.5489,0 h 2.7744 v 2.7744 h -2.7744 z m 2.7744,0 h 2.7746 v 2.7744 h -2.7746 z m 2.7746,0 h 2.7745 v 2.7744 h -2.7745 z m 5.5489,0 h 2.7745 v 2.7744 h -2.7745 z m -66.5881,2.7744 h 2.7747 v 2.7745 h -2.7747 z m 5.5491,0 h 2.7745 v 2.7745 h -2.7745 z m 2.7745,0 h 2.7746 v 2.7745 h -2.7746 z m 2.7746,0 h 2.7744 v 2.7745 h -2.7744 z m 5.5489,0 h 2.7744 v 2.7745 h -2.7744 z m 5.5491,0 h 2.7744 v 2.7745 h -2.7744 z m 2.7744,0 h 2.7745 v 2.7745 h -2.7745 z m 2.7745,0 h 2.7744 v 2.7745 h -2.7744 z m 2.7744,0 h 2.7747 v 2.7745 h -2.7747 z m 2.7747,0 h 2.7744 v 2.7745 h -2.7744 z m 11.098,0 h 2.7744 v 2.7745 h -2.7744 z m 5.5491,0 h 2.7744 v 2.7745 h -2.7744 z m 5.5489,0 h 2.7744 v 2.7745 h -2.7744 z m 2.7744,0 h 2.7746 v 2.7745 h -2.7746 z m 2.7746,0 h 2.7745 v 2.7745 h -2.7745 z m 5.5489,0 h 2.7745 v 2.7745 h -2.7745 z m -66.5881,2.7745 h 2.7747 v 2.7744 h -2.7747 z m 16.6471,0 h 2.7744 v 2.7744 h -2.7744 z m 5.5491,0 h 2.7744 v 2.7744 h -2.7744 z m 5.5489,0 h 2.7744 v 2.7744 h -2.7744 z m 2.7744,0 h 2.7747 v 2.7744 h -2.7747 z m 11.0982,0 h 2.7745 v 2.7744 h -2.7745 z m 8.3236,0 h 2.7744 v 2.7744 h -2.7744 z m 16.6468,0 h 2.7745 v 2.7744 h -2.7745 z m -66.5881,2.7744 h 2.7747 v 2.7747 h -2.7747 z m 2.7747,0 h 2.7744 v 2.7747 h -2.7744 z m 2.7744,0 h 2.7745 v 2.7747 h -2.7745 z m 2.7745,0 h 2.7746 v 2.7747 h -2.7746 z m 2.7746,0 h 2.7744 v 2.7747 h -2.7744 z m 2.7744,0 h 2.7745 v 2.7747 h -2.7745 z m 2.7745,0 h 2.7744 v 2.7747 h -2.7744 z m 5.5491,0 h 2.7744 v 2.7747 h -2.7744 z m 5.5489,0 h 2.7744 v 2.7747 h -2.7744 z m 5.5491,0 h 2.7744 v 2.7747 h -2.7744 z m 5.5489,0 h 2.7746 v 2.7747 h -2.7746 z m 5.5491,0 h 2.7744 v 2.7747 h -2.7744 z m 5.5491,0 h 2.7744 v 2.7747 h -2.7744 z m 2.7744,0 h 2.7745 v 2.7747 h -2.7745 z m 2.7745,0 h 2.7744 v 2.7747 h -2.7744 z m 2.7744,0 h 2.7746 v 2.7747 h -2.7746 z m 2.7746,0 h 2.7745 v 2.7747 h -2.7745 z m 2.7745,0 h 2.7744 v 2.7747 h -2.7744 z m 2.7744,0 h 2.7745 v 2.7747 h -2.7745 z m -44.3919,2.7747 h 2.7744 v 2.7744 h -2.7744 z m 2.7744,0 h 2.7745 v 2.7744 h -2.7745 z m 13.8725,0 h 2.7746 v 2.7744 h -2.7746 z m -38.8431,2.7744 h 2.7747 v 2.7745 h -2.7747 z m 5.5491,0 h 2.7745 v 2.7745 h -2.7745 z m 2.7745,0 h 2.7744 v 2.7745 h -2.7744 z m 2.7744,0 h 2.7746 v 2.7745 h -2.7746 z m 2.7746,0 h 2.7745 v 2.7745 h -2.7745 z m 2.7745,0 h 2.7744 v 2.7745 h -2.7744 z m 11.098,0 h 2.7744 v 2.7745 h -2.7744 z m 5.5491,0 h 2.7744 v 2.7745 h -2.7744 z m 8.3235,0 h 2.7745 v 2.7745 h -2.7745 z m 2.7745,0 h 2.7744 v 2.7745 h -2.7744 z m 5.5491,0 h 2.7744 v 2.7745 h -2.7744 z m 2.7744,0 h 2.7745 v 2.7745 h -2.7745 z m 2.7745,0 h 2.7744 v 2.7745 h -2.7744 z m 2.7744,0 h 2.7746 v 2.7745 h -2.7746 z m 2.7746,0 h 2.7745 v 2.7745 h -2.7745 z m -61.0392,2.7745 h 2.7747 v 2.7746 h -2.7747 z m 2.7747,0 h 2.7744 v 2.7746 h -2.7744 z m 11.0979,0 h 2.7745 v 2.7746 h -2.7745 z m 8.3236,0 h 2.7744 v 2.7746 h -2.7744 z m 2.7744,0 h 2.7745 v 2.7746 h -2.7745 z m 5.5489,0 h 2.7747 v 2.7746 h -2.7747 z m 5.5491,0 h 2.7745 v 2.7746 h -2.7745 z m 2.7745,0 h 2.7746 v 2.7746 h -2.7746 z m 5.5491,0 h 2.7744 v 2.7746 h -2.7744 z m 8.3235,0 h 2.7745 v 2.7746 h -2.7745 z m 11.098,0 h 2.7744 v 2.7746 h -2.7744 z m -61.039,2.7746 h 2.7744 v 2.7745 h -2.7744 z m 5.5489,0 h 2.7744 v 2.7745 h -2.7744 z m 2.7744,0 h 2.7746 v 2.7745 h -2.7746 z m 2.7746,0 h 2.7745 v 2.7745 h -2.7745 z m 2.7745,0 h 2.7744 v 2.7745 h -2.7744 z m 19.4215,0 h 2.7745 v 2.7745 h -2.7745 z m 2.7745,0 h 2.7746 v 2.7745 h -2.7746 z m 2.7746,0 h 2.7745 v 2.7745 h -2.7745 z m 2.7745,0 h 2.7744 v 2.7745 h -2.7744 z m 2.7744,0 h 2.7747 v 2.7745 h -2.7747 z m 2.7747,0 h 2.7744 v 2.7745 h -2.7744 z m 2.7744,0 h 2.7745 v 2.7745 h -2.7745 z m 2.7745,0 h 2.7744 v 2.7745 h -2.7744 z m 2.7744,0 h 2.7746 v 2.7745 h -2.7746 z m 5.5491,0 h 2.7744 v 2.7745 h -2.7744 z m 2.7744,0 h 2.7745 v 2.7745 h -2.7745 z m -66.5881,2.7745 h 2.7747 v 2.7744 h -2.7747 z m 2.7747,0 h 2.7744 v 2.7744 h -2.7744 z m 11.0979,0 h 2.7745 v 2.7744 h -2.7745 z m 11.098,0 h 2.7745 v 2.7744 h -2.7745 z m 5.5489,0 h 2.7747 v 2.7744 h -2.7747 z m 5.5491,0 h 2.7745 v 2.7744 h -2.7745 z m 8.3236,0 h 2.7744 v 2.7744 h -2.7744 z m 2.7744,0 h 2.7747 v 2.7744 h -2.7747 z m 2.7747,0 h 2.7744 v 2.7744 h -2.7744 z m 2.7744,0 h 2.7745 v 2.7744 h -2.7745 z m 2.7745,0 h 2.7744 v 2.7744 h -2.7744 z m 11.0979,0 h 2.7745 v 2.7744 h -2.7745 z m -49.941,2.7744 h 2.7744 v 2.7745 h -2.7744 z m 2.7744,0 h 2.7747 v 2.7745 h -2.7747 z m 2.7747,0 h 2.7744 v 2.7745 h -2.7744 z m 5.5489,0 h 2.7744 v 2.7745 h -2.7744 z m 5.5491,0 h 2.7744 v 2.7745 h -2.7744 z m 5.5489,0 h 2.7746 v 2.7745 h -2.7746 z m 8.3235,0 h 2.7747 v 2.7745 h -2.7747 z m 2.7747,0 h 2.7744 v 2.7745 h -2.7744 z m 5.5489,0 h 2.7744 v 2.7745 h -2.7744 z m 5.549,0 h 2.7745 v 2.7745 h -2.7745 z m 2.7745,0 h 2.7744 v 2.7745 h -2.7744 z m 2.7744,0 h 2.7745 v 2.7745 h -2.7745 z m -66.5881,2.7745 h 2.7747 v 2.7746 h -2.7747 z m 5.5491,0 h 2.7745 v 2.7746 h -2.7745 z m 5.5489,0 h 2.7746 v 2.7746 h -2.7746 z m 13.8726,0 h 2.7745 v 2.7746 h -2.7745 z m 2.7745,0 h 2.7744 v 2.7746 h -2.7744 z m 16.6471,0 h 2.7744 v 2.7746 h -2.7744 z m 8.3235,0 h 2.7745 v 2.7746 h -2.7745 z m 5.5489,0 h 2.7746 v 2.7746 h -2.7746 z m 5.5491,0 h 2.7744 v 2.7746 h -2.7744 z m -63.8137,2.7746 h 2.7747 v 2.7745 h -2.7747 z m 8.3236,0 h 2.7744 v 2.7745 h -2.7744 z m 8.3235,0 h 2.7744 v 2.7745 h -2.7744 z m 2.7744,0 h 2.7747 v 2.7745 h -2.7747 z m 2.7747,0 h 2.7744 v 2.7745 h -2.7744 z m 2.7744,0 h 2.7745 v 2.7745 h -2.7745 z m 5.5489,0 h 2.7747 v 2.7745 h -2.7747 z m 2.7747,0 h 2.7744 v 2.7745 h -2.7744 z m 8.3235,0 h 2.7745 v 2.7745 h -2.7745 z m 5.5489,0 h 2.7747 v 2.7745 h -2.7747 z m 5.5491,0 h 2.7745 v 2.7745 h -2.7745 z m 2.7745,0 h 2.7744 v 2.7745 h -2.7744 z m 2.7744,0 h 2.7746 v 2.7745 h -2.7746 z m 5.5491,0 h 2.7744 v 2.7745 h -2.7744 z m 2.7744,0 h 2.7745 v 2.7745 h -2.7745 z m -66.5881,2.7745 h 2.7747 v 2.7744 h -2.7747 z m 5.5491,0 h 2.7745 v 2.7744 h -2.7745 z m 19.4215,0 h 2.7745 v 2.7744 h -2.7745 z m 5.5489,0 h 2.7747 v 2.7744 h -2.7747 z m 8.3236,0 h 2.7746 v 2.7744 h -2.7746 z m 5.5491,0 h 2.7744 v 2.7744 h -2.7744 z m 2.7744,0 h 2.7747 v 2.7744 h -2.7747 z m 2.7747,0 h 2.7744 v 2.7744 h -2.7744 z m 2.7744,0 h 2.7745 v 2.7744 h -2.7745 z m 2.7745,0 h 2.7744 v 2.7744 h -2.7744 z m 11.0979,0 h 2.7745 v 2.7744 h -2.7745 z m -66.5881,2.7744 h 2.7747 v 2.7747 h -2.7747 z m 8.3236,0 h 2.7744 v 2.7747 h -2.7744 z m 2.7744,0 h 2.7746 v 2.7747 h -2.7746 z m 5.5491,0 h 2.7744 v 2.7747 h -2.7744 z m 2.7744,0 h 2.7747 v 2.7747 h -2.7747 z m 2.7747,0 h 2.7744 v 2.7747 h -2.7744 z m 2.7744,0 h 2.7745 v 2.7747 h -2.7745 z m 2.7745,0 h 2.7744 v 2.7747 h -2.7744 z m 2.7744,0 h 2.7747 v 2.7747 h -2.7747 z m 13.8727,0 h 2.7744 v 2.7747 h -2.7744 z m 2.7744,0 h 2.7747 v 2.7747 h -2.7747 z m 2.7747,0 h 2.7744 v 2.7747 h -2.7744 z m 2.7744,0 h 2.7745 v 2.7747 h -2.7745 z m 2.7745,0 h 2.7744 v 2.7747 h -2.7744 z m 5.549,0 h 2.7745 v 2.7747 h -2.7745 z m -38.843,2.7747 h 2.7744 v 2.7744 h -2.7744 z m 5.5489,0 h 2.7744 v 2.7744 h -2.7744 z m 5.5491,0 h 2.7744 v 2.7744 h -2.7744 z m 2.7744,0 h 2.7745 v 2.7744 h -2.7745 z m 2.7745,0 h 2.7746 v 2.7744 h -2.7746 z m 2.7746,0 h 2.7745 v 2.7744 h -2.7745 z m 2.7745,0 h 2.7744 v 2.7744 h -2.7744 z m 11.098,0 h 2.7744 v 2.7744 h -2.7744 z m 2.7744,0 h 2.7746 v 2.7744 h -2.7746 z m -58.2646,2.7744 h 2.7747 v 2.7745 h -2.7747 z m 2.7747,0 h 2.7744 v 2.7745 h -2.7744 z m 2.7744,0 h 2.7745 v 2.7745 h -2.7745 z m 2.7745,0 h 2.7744 v 2.7745 h -2.7744 z m 2.7744,0 h 2.7746 v 2.7745 h -2.7746 z m 2.7746,0 h 2.7745 v 2.7745 h -2.7745 z m 2.7745,0 h 2.7744 v 2.7745 h -2.7744 z m 8.3235,0 h 2.7745 v 2.7745 h -2.7745 z m 11.098,0 h 2.7745 v 2.7745 h -2.7745 z m 2.7745,0 h 2.7746 v 2.7745 h -2.7746 z m 5.5491,0 h 2.7744 v 2.7745 h -2.7744 z m 5.5491,0 h 2.7744 v 2.7745 h -2.7744 z m 5.5489,0 h 2.7744 v 2.7745 h -2.7744 z m 5.549,0 h 2.7745 v 2.7745 h -2.7745 z m 2.7745,0 h 2.7744 v 2.7745 h -2.7744 z m 2.7744,0 h 2.7745 v 2.7745 h -2.7745 z m -66.5881,2.7745 h 2.7747 v 2.7746 h -2.7747 z m 16.6471,0 h 2.7744 v 2.7746 h -2.7744 z m 5.5491,0 h 2.7744 v 2.7746 h -2.7744 z m 2.7744,0 h 2.7745 v 2.7746 h -2.7745 z m 2.7745,0 h 2.7744 v 2.7746 h -2.7744 z m 5.5491,0 h 2.7744 v 2.7746 h -2.7744 z m 2.7744,0 h 2.7745 v 2.7746 h -2.7745 z m 5.5491,0 h 2.7745 v 2.7746 h -2.7745 z m 2.7745,0 h 2.7744 v 2.7746 h -2.7744 z m 11.098,0 h 2.7744 v 2.7746 h -2.7744 z m 2.7744,0 h 2.7746 v 2.7746 h -2.7746 z m 5.5491,0 h 2.7744 v 2.7746 h -2.7744 z m 2.7744,0 h 2.7745 v 2.7746 h -2.7745 z m -66.5881,2.7746 h 2.7747 v 2.7744 h -2.7747 z m 5.5491,0 h 2.7745 v 2.7744 h -2.7745 z m 2.7745,0 h 2.7744 v 2.7744 h -2.7744 z m 2.7744,0 h 2.7746 v 2.7744 h -2.7746 z m 5.5491,0 h 2.7744 v 2.7744 h -2.7744 z m 5.5491,0 h 2.7744 v 2.7744 h -2.7744 z m 2.7744,0 h 2.7745 v 2.7744 h -2.7745 z m 2.7745,0 h 2.7744 v 2.7744 h -2.7744 z m 5.5491,0 h 2.7744 v 2.7744 h -2.7744 z m 5.5489,0 h 2.7746 v 2.7744 h -2.7746 z m 2.7746,0 h 2.7745 v 2.7744 h -2.7745 z m 2.7745,0 h 2.7744 v 2.7744 h -2.7744 z m 2.7744,0 h 2.7747 v 2.7744 h -2.7747 z m 2.7747,0 h 2.7744 v 2.7744 h -2.7744 z m 2.7744,0 h 2.7745 v 2.7744 h -2.7745 z m 2.7745,0 h 2.7744 v 2.7744 h -2.7744 z m 5.549,0 h 2.7745 v 2.7744 h -2.7745 z m 5.5489,0 h 2.7745 v 2.7744 h -2.7745 z m -66.5881,2.7744 h 2.7747 v 2.7745 h -2.7747 z m 5.5491,0 h 2.7745 v 2.7745 h -2.7745 z m 2.7745,0 h 2.7744 v 2.7745 h -2.7744 z m 2.7744,0 h 2.7746 v 2.7745 h -2.7746 z m 5.5491,0 h 2.7744 v 2.7745 h -2.7744 z m 5.5491,0 h 2.7744 v 2.7745 h -2.7744 z m 2.7744,0 h 2.7745 v 2.7745 h -2.7745 z m 2.7745,0 h 2.7744 v 2.7745 h -2.7744 z m 13.8726,0 h 2.7745 v 2.7745 h -2.7745 z m 2.7745,0 h 2.7744 v 2.7745 h -2.7744 z m 2.7744,0 h 2.7747 v 2.7745 h -2.7747 z m 2.7747,0 h 2.7744 v 2.7745 h -2.7744 z m 5.5489,0 h 2.7744 v 2.7745 h -2.7744 z m 2.7744,0 h 2.7746 v 2.7745 h -2.7746 z m 2.7746,0 h 2.7745 v 2.7745 h -2.7745 z m 2.7745,0 h 2.7744 v 2.7745 h -2.7744 z m 2.7744,0 h 2.7745 v 2.7745 h -2.7745 z m -66.5881,2.7745 h 2.7747 v 2.7744 h -2.7747 z m 5.5491,0 h 2.7745 v 2.7744 h -2.7745 z m 2.7745,0 h 2.7744 v 2.7744 h -2.7744 z m 2.7744,0 h 2.7746 v 2.7744 h -2.7746 z m 5.5491,0 h 2.7744 v 2.7744 h -2.7744 z m 5.5491,0 h 2.7744 v 2.7744 h -2.7744 z m 2.7744,0 h 2.7745 v 2.7744 h -2.7745 z m 5.5489,0 h 2.7747 v 2.7744 h -2.7747 z m 2.7747,0 h 2.7744 v 2.7744 h -2.7744 z m 24.9704,0 h 2.7746 v 2.7744 h -2.7746 z m 2.7746,0 h 2.7745 v 2.7744 h -2.7745 z m 5.5489,0 h 2.7745 v 2.7744 h -2.7745 z m -66.5881,2.7744 h 2.7747 v 2.7747 h -2.7747 z m 16.6471,0 h 2.7744 v 2.7747 h -2.7744 z m 8.3235,0 h 2.7745 v 2.7747 h -2.7745 z m 5.5489,0 h 2.7747 v 2.7747 h -2.7747 z m 8.3236,0 h 2.7746 v 2.7747 h -2.7746 z m 2.7746,0 h 2.7745 v 2.7747 h -2.7745 z m 2.7745,0 h 2.7744 v 2.7747 h -2.7744 z m 2.7744,0 h 2.7747 v 2.7747 h -2.7747 z m 5.5491,0 h 2.7745 v 2.7747 h -2.7745 z m 2.7745,0 h 2.7744 v 2.7747 h -2.7744 z m 2.7744,0 h 2.7746 v 2.7747 h -2.7746 z m 8.3235,0 h 2.7745 v 2.7747 h -2.7745 z m -66.5881,2.7747 h 2.7747 v 2.7744 h -2.7747 z m 2.7747,0 h 2.7744 v 2.7744 h -2.7744 z m 2.7744,0 h 2.7745 v 2.7744 h -2.7745 z m 2.7745,0 h 2.7744 v 2.7744 h -2.7744 z m 2.7744,0 h 2.7746 v 2.7744 h -2.7746 z m 2.7746,0 h 2.7745 v 2.7744 h -2.7745 z m 2.7745,0 h 2.7744 v 2.7744 h -2.7744 z m 5.5491,0 h 2.7744 v 2.7744 h -2.7744 z m 8.3233,0 h 2.7747 v 2.7744 h -2.7747 z m 16.6471,0 h 2.7747 v 2.7744 h -2.7747 z m 5.5491,0 h 2.7745 v 2.7744 h -2.7745 z m 2.7745,0 h 2.7744 v 2.7744 h -2.7744 z m 2.7744,0 h 2.7746 v 2.7744 h -2.7746 z m 2.7746,0 h 2.7745 v 2.7744 h -2.7745 z m 2.7745,0 h 2.7744 v 2.7744 h -2.7744 z m 2.7744,0 h 2.7745 v 2.7744 h -2.7745 z"
         id="qr-path-4"
         fill="#000000"
         fill-opacity="1"
         fill-rule="nonzero"
         stroke="none"
         style="display:inline;stroke-width:2.77451" />
      <g
         id="g2"
         transform="matrix(0.69329109,0,0,0.69329109,1352.8663,1025.7132)"
         style="display:inline">
        <path
           id="path3981-2-1-6-7-5-0-4-4-8-3-3-7"
           style="display:inline;opacity:1;vector-effect:none;fill:none;stroke:#1f567d;stroke-width:62.358"
           transform="rotate(90.00083)"
           d="m 685.93895,-436.98356 a 129.58989,129.58989 0 0 1 -145.76847,60.37928 129.58989,129.58989 0 0 1 -96.04955,-125.17422 129.58989,129.58989 0 0 1 96.04955,-125.17422 129.58989,129.58989 0 0 1 145.76847,60.37927" />
      </g>
      <path
         id="rect1"
         style="display:inline;opacity:0.99;fill:#1f567d;stroke-width:3.87633;stroke-linejoin:round"
         d="m 1534.0188,1312.0072 h 43.2 c 0,0 0,0 0,0 v 207.9874 c 0,0 0,0 0,0 h -43.2 c 0,0 0,0 0,0 v -207.9874 c 0,0 0,0 0,0 z" />
    </g>
    <g
       id="text2987-2-8-8"
       style="font-size:57.2973px;line-height:100%;letter-spacing:3.83186px;word-spacing:0px;stroke-width:0.767376"
       aria-label="&#10;open&#10;energy&#10;modelling&#10;framework">
      <path
         style="line-height:100%;font-family:FreeSans;-inkscape-font-specification:FreeSans"
         d="m 1548.2917,1567.7201 q 7.2767,0 11.2875,4.4119 4.0681,4.3546 4.0681,12.2043 0,7.4487 -4.1254,11.8033 -4.1254,4.3546 -11.1729,4.3546 -7.1622,0 -11.2303,-4.3546 -4.0681,-4.4119 -4.0681,-12.0324 0,-7.6206 4.0681,-11.9752 4.0681,-4.4119 11.173,-4.4119 z m 0.057,6.4746 q -3.266,0 -5.2714,2.7503 -2.0054,2.7503 -2.0054,7.1622 0,4.4119 2.0054,7.1621 2.0054,2.7503 5.2714,2.7503 3.2086,0 5.214,-2.693 2.0627,-2.7503 2.0627,-7.1048 0,-4.5838 -2.0054,-7.2768 -1.9481,-2.7503 -5.2713,-2.7503 z"
         id="path8" />
      <path
         style="line-height:100%;font-family:FreeSans;-inkscape-font-specification:FreeSans;letter-spacing:0px"
         d="m 1569.1479,1611.6672 v -42.5146 h 4.4119 v 4.5265 q 3.3805,-5.386 9.5686,-5.386 5.9589,0 9.3968,4.4119 3.4951,4.4119 3.4951,11.9751 0,7.1622 -3.5524,11.5168 -3.4952,4.2973 -9.2822,4.2973 -5.5578,0 -9.2249,-4.4692 v 15.6422 z m 13.1784,-38.9049 q -3.7817,0 -6.0736,3.2086 -2.2919,3.1514 -2.2919,8.4227 0,5.2714 2.2919,8.48 2.2919,3.1514 6.0736,3.1514 3.8962,0 6.3027,-3.1514 2.4064,-3.2086 2.4064,-8.3081 0,-5.3859 -2.4064,-8.5946 -2.3492,-3.2086 -6.3027,-3.2086 z m 44.9783,13.0065 h -22.1167 q 0.057,4.1254 1.6043,6.4173 2.4638,3.8962 7.2194,3.8962 5.8444,0 7.8498,-6.0162 h 4.8129 q -0.9167,4.9275 -4.2973,7.6778 -3.3805,2.7503 -8.5372,2.7503 -6.3028,0 -9.9698,-4.24 -3.667,-4.2973 -3.667,-11.6887 0,-7.3913 3.7243,-11.8032 3.7816,-4.4692 10.027,-4.4692 4.24,0 7.4487,2.12 3.2659,2.12 4.6984,5.787 1.2032,3.1514 1.2032,9.5687 z m -22.0021,-3.8962 h 16.8454 q 0.057,-0.1146 0.057,-0.3438 0,-3.7243 -2.4065,-6.2454 -2.4065,-2.5784 -5.9017,-2.5784 -3.6097,0 -5.9589,2.5211 -2.3492,2.4638 -2.6356,6.6465 z m 27.3307,-12.72 h 4.4119 v 5.0421 q 2.0054,-3.1513 4.2973,-4.5265 2.3492,-1.3751 5.6724,-1.3751 4.3546,0 6.933,2.2346 2.5784,2.2346 2.5784,5.9589 v 22.6897 h -4.7557 v -20.7989 q 0,-2.6929 -1.6616,-4.2973 -1.6616,-1.6043 -4.5265,-1.6043 -3.667,0 -5.9016,2.8076 -2.2346,2.7502 -2.2346,7.334 v 16.5589 h -4.813 z"
         id="path9" />
      <path
         style="font-weight:bold;line-height:100%;font-family:FreeSans;-inkscape-font-specification:'FreeSans Bold';letter-spacing:0px"
         d="m 1546.63,1627.3228 q 2.0054,0 3.8962,0.4583 1.8909,0.4584 3.839,1.6617 2.0054,1.2032 3.4378,3.094 1.4897,1.8335 2.4065,4.9276 0.9167,3.0367 0.9167,6.9902 0,0.6876 -0.057,1.3752 h -20.7417 q 0.057,1.7762 0.2865,3.094 0.2865,1.2606 0.9168,2.5211 0.6875,1.2033 1.9481,1.8908 1.3178,0.6303 3.2659,0.6303 4.5838,0 6.1308,-3.8962 h 7.9071 q -1.3179,4.5838 -5.2141,7.334 -3.8962,2.693 -9.1103,2.693 -6.5892,0 -10.3708,-4.24 -3.7816,-4.2973 -3.7816,-11.7459 0,-7.7925 3.8389,-12.2617 3.8389,-4.5264 10.4854,-4.5264 z m 6.1308,13.1783 q -0.2864,-3.3805 -1.8908,-5.214 -1.547,-1.8335 -4.3546,-1.8335 -5.2713,0 -6.0735,7.0475 z"
         id="path10" />
      <path
         style="line-height:100%;font-family:FreeSans;-inkscape-font-specification:FreeSans;letter-spacing:0px"
         d="m 1566.9133,1628.7552 h 4.4119 v 5.0421 q 2.0054,-3.1513 4.2973,-4.5264 2.3491,-1.3752 5.6724,-1.3752 4.3546,0 6.933,2.2346 2.5783,2.2346 2.5783,5.9589 v 22.6898 h -4.7556 v -20.799 q 0,-2.6929 -1.6617,-4.2972 -1.6616,-1.6044 -4.5264,-1.6044 -3.6671,0 -5.9017,2.8076 -2.2346,2.7503 -2.2346,7.3341 v 16.5589 h -4.8129 z m 56.3805,16.6162 h -22.1167 q 0.057,4.1254 1.6043,6.4173 2.4638,3.8962 7.2195,3.8962 5.8443,0 7.8497,-6.0162 h 4.813 q -0.9168,4.9276 -4.2973,7.6778 -3.3806,2.7503 -8.5373,2.7503 -6.3027,0 -9.9698,-4.24 -3.667,-4.2973 -3.667,-11.6886 0,-7.3914 3.7243,-11.8033 3.7816,-4.4692 10.0271,-4.4692 4.24,0 7.4486,2.12 3.2659,2.12 4.6984,5.7871 1.2032,3.1513 1.2032,9.5686 z m -22.0021,-3.8962 h 16.8454 q 0.057,-0.1146 0.057,-0.3438 0,-3.7243 -2.4065,-6.2454 -2.4065,-2.5784 -5.9016,-2.5784 -3.6098,0 -5.959,2.5211 -2.3492,2.4638 -2.6356,6.6465 z m 42.2853,-8.5373 q -4.8129,0.1146 -7.2194,2.2346 -2.4065,2.12 -2.4065,8.0216 v 15.5849 h -4.813 v -30.0238 h 4.4119 v 5.4432 q 2.0627,-3.3805 3.9535,-4.8129 1.9481,-1.4898 4.24,-1.4898 0.6303,0 1.8335,0.1719 z m 13.5795,27.1589 q -5.2714,0 -8.8238,-4.2973 -3.5524,-4.3546 -3.5524,-11.5167 0,-7.3341 3.4951,-11.8606 3.5524,-4.5265 9.2822,-4.5265 5.6151,0 9.1675,5.2141 v -4.3546 h 4.4119 v 25.0962 q 0,4.2973 -0.5157,7.1622 -0.5156,2.9221 -1.8908,5.3859 -1.3751,2.4638 -4.1254,3.667 -2.6929,1.2033 -6.8756,1.2033 -5.2714,0 -8.4227,-2.4065 -3.1514,-2.4065 -3.5525,-6.6465 h 4.8703 q 0.8022,5.0422 7.2767,5.0422 4.813,0 6.5892,-2.7503 1.7763,-2.693 1.7763,-8.2508 v -1.547 q -2.0055,2.8648 -4.1827,4.1254 -2.12,1.2605 -4.9276,1.2605 z m 0.9167,-27.7892 q -3.8389,0 -6.0735,3.1514 -2.2346,3.1513 -2.2346,8.5373 0,5.4432 2.2346,8.5946 2.2346,3.094 6.1308,3.094 3.7817,0 5.959,-3.0367 2.1773,-3.0941 2.1773,-8.48 0,-5.6152 -2.1773,-8.7092 -2.12,-3.1514 -6.0163,-3.1514 z m 39.1341,-3.5524 h 5.1567 l -13.3502,36.3265 q -2.3492,6.1881 -7.7352,6.1881 -1.7762,0 -3.2086,-0.7449 v -4.2973 q 1.547,0.3438 2.5211,0.3438 1.4897,0 2.3492,-0.6876 0.8594,-0.6302 1.4897,-2.2346 l 1.8335,-4.7556 -10.1416,-30.1384 h 5.0994 l 7.6779,23.3773 z"
         id="path11" />
      <path
         style="font-weight:bold;line-height:100%;font-family:FreeSans;-inkscape-font-specification:'FreeSans Bold';letter-spacing:0px"
         d="m 1534.483,1687.441 h 7.9643 v 3.839 q 2.0054,-2.3492 3.8962,-3.3233 1.9482,-1.0313 4.5838,-1.0313 6.0735,0 8.4227,4.5838 3.4379,-4.5838 9.053,-4.5838 4.6411,0 7.2195,2.5211 2.6356,2.521 2.6356,7.0475 v 21.8876 h -8.0216 v -20.627 q 0,-1.8336 -1.2032,-2.9222 -1.146,-1.0886 -3.1514,-1.0886 -2.5784,0 -4.0681,1.6043 -1.4324,1.6043 -1.4324,4.4692 v 18.5643 h -8.0216 v -20.627 q 0,-1.8336 -1.2033,-2.9222 -1.1459,-1.0886 -3.1513,-1.0886 -2.5784,0 -4.0681,1.6043 -1.4325,1.6043 -1.4325,4.4692 v 18.5643 h -8.0216 z m 64.4595,-0.5156 q 7.2768,0 11.2876,4.4119 4.0681,4.3546 4.0681,12.2043 0,7.4486 -4.1254,11.8032 -4.1254,4.3546 -11.173,4.3546 -7.1622,0 -11.2303,-4.3546 -4.0681,-4.4119 -4.0681,-12.0324 0,-7.6205 4.0681,-11.9751 4.0681,-4.4119 11.173,-4.4119 z m 0.057,6.4746 q -3.2659,0 -5.2713,2.7502 -2.0055,2.7503 -2.0055,7.1622 0,4.4119 2.0055,7.1622 2.0054,2.7502 5.2713,2.7502 3.2087,0 5.2141,-2.6929 2.0627,-2.7503 2.0627,-7.1049 0,-4.5838 -2.0054,-7.2768 -1.9482,-2.7502 -5.2714,-2.7502 z"
         id="path12" />
      <path
         style="line-height:100%;font-family:FreeSans;-inkscape-font-specification:FreeSans;letter-spacing:0px"
         d="m 1645.0668,1676.6119 v 41.7697 h -4.24 v -3.9535 q -1.9481,2.8075 -4.24,4.0108 -2.2346,1.2605 -5.3286,1.2605 -6.0735,0 -9.5687,-4.3546 -3.4951,-4.4119 -3.4951,-12.0324 0,-7.1622 3.4951,-11.4595 3.5525,-4.3546 9.3968,-4.3546 6.1881,0 9.2249,4.6411 v -15.5275 z m -13.1783,15.3556 q -3.8963,0 -6.3027,3.2087 -2.4065,3.2086 -2.4065,8.4227 0,5.2713 2.4065,8.48 2.4064,3.1513 6.36,3.1513 3.7816,0 6.0735,-3.1513 2.2919,-3.1514 2.2919,-8.3654 0,-5.386 -2.2919,-8.5373 -2.2919,-3.2087 -6.1308,-3.2087 z m 45.494,13.0065 h -22.1168 q 0.057,4.1254 1.6043,6.4173 2.4638,3.8962 7.2195,3.8962 5.8443,0 7.8497,-6.0162 h 4.813 q -0.9167,4.9276 -4.2973,7.6779 -3.3805,2.7502 -8.5373,2.7502 -6.3027,0 -9.9697,-4.24 -3.667,-4.2973 -3.667,-11.6886 0,-7.3914 3.7243,-11.8033 3.7816,-4.4692 10.027,-4.4692 4.24,0 7.4487,2.12 3.2659,2.12 4.6983,5.7871 1.2033,3.1513 1.2033,9.5686 z m -22.0022,-3.8962 h 16.8454 q 0.057,-0.1146 0.057,-0.3438 0,-3.7243 -2.4065,-6.2454 -2.4065,-2.5784 -5.9016,-2.5784 -3.6097,0 -5.9589,2.5211 -2.3492,2.4638 -2.6357,6.6465 z m 33.1751,-24.4659 v 41.7697 h -4.8129 v -41.7697 z m 12.7201,0 v 41.7697 h -4.813 v -41.7697 z m 12.6054,11.7459 v 30.0238 h -4.7557 v -30.0238 z m 0,-11.7459 v 6.0162 h -4.813 v -6.0162 z m 8.1362,11.7459 h 4.4119 v 5.0422 q 2.0054,-3.1514 4.2973,-4.5265 2.3492,-1.3752 5.6724,-1.3752 4.3546,0 6.933,2.2346 2.5784,2.2346 2.5784,5.959 v 22.6897 h -4.7557 v -20.7989 q 0,-2.693 -1.6616,-4.2973 -1.6617,-1.6044 -4.5265,-1.6044 -3.6671,0 -5.9017,2.8076 -2.2345,2.7503 -2.2345,7.3341 v 16.5589 h -4.813 z m 41.8843,31.3416 q -5.2714,0 -8.8238,-4.2973 -3.5524,-4.3546 -3.5524,-11.5167 0,-7.3341 3.4951,-11.8606 3.5524,-4.5265 9.2822,-4.5265 5.6151,0 9.1675,5.2141 v -4.3546 h 4.4119 v 25.0962 q 0,4.2973 -0.5156,7.1622 -0.5157,2.9221 -1.8909,5.3859 -1.3751,2.4638 -4.1254,3.6671 -2.6929,1.2032 -6.8756,1.2032 -5.2714,0 -8.4227,-2.4065 -3.1514,-2.4065 -3.5525,-6.6465 h 4.8703 q 0.8022,5.0422 7.2768,5.0422 4.8129,0 6.5891,-2.7503 1.7763,-2.693 1.7763,-8.2508 v -1.547 q -2.0054,2.8648 -4.1827,4.1254 -2.12,1.2605 -4.9276,1.2605 z m 0.9168,-27.7892 q -3.839,0 -6.0736,3.1514 -2.2346,3.1513 -2.2346,8.5373 0,5.4432 2.2346,8.5946 2.2346,3.094 6.1308,3.094 3.7817,0 5.959,-3.0367 2.1773,-3.0941 2.1773,-8.48 0,-5.6152 -2.1773,-8.7092 -2.12,-3.1514 -6.0162,-3.1514 z"
         id="path13" />
      <path
         style="font-weight:bold;line-height:100%;font-family:FreeSans;-inkscape-font-specification:'FreeSans Bold';letter-spacing:0px"
         d="m 1548.9792,1747.6739 v 5.3287 h -4.7557 v 24.9816 h -8.0216 v -24.9816 h -4.3546 v -5.3287 h 4.3546 v -3.7243 q 0,-7.7351 7.9071,-7.7351 2.3491,0 4.5837,0.1719 v 6.0162 q -1.0313,-0.1719 -2.2919,-0.1719 -2.1773,0 -2.1773,2.4065 v 3.0367 z"
         id="path14" />
      <path
         style="line-height:100%;font-family:FreeSans;-inkscape-font-specification:FreeSans;letter-spacing:0px"
         d="m 1568.5176,1752.1431 q -4.813,0.1146 -7.2194,2.2346 -2.4065,2.12 -2.4065,8.0216 v 15.5849 h -4.813 v -30.0238 h 4.4119 v 5.4433 q 2.0627,-3.3806 3.9535,-4.813 1.9481,-1.4897 4.24,-1.4897 0.6303,0 1.8335,0.1719 z m 3.2659,4.6984 q 0.3438,-9.7405 12.0325,-9.7405 5.5578,0 8.4227,2.12 2.8648,2.0627 2.8648,6.0735 v 17.6475 q 0,2.3492 2.5784,2.3492 0.5157,0 1.0314,-0.1146 v 3.6098 q -2.0054,0.5156 -3.266,0.5156 -2.2919,0 -3.4951,-1.0886 -1.146,-1.0314 -1.4324,-3.3232 -4.813,4.4118 -10.199,4.4118 -4.5264,0 -7.2194,-2.4064 -2.6357,-2.4065 -2.6357,-6.4746 0,-1.3179 0.2292,-2.4065 0.2865,-1.0887 0.573,-1.8908 0.3437,-0.8595 1.1459,-1.5471 0.8022,-0.7448 1.3178,-1.2032 0.573,-0.4584 1.8336,-0.8595 1.3178,-0.4583 2.0054,-0.6302 0.6875,-0.2292 2.4065,-0.5157 1.7189,-0.2865 2.521,-0.4011 0.8022,-0.1146 2.8649,-0.4011 2.8076,-0.3438 3.8962,-1.0886 1.0887,-0.7449 1.0887,-2.2346 v -1.2606 q 0,-2.1773 -1.7763,-3.3232 -1.7189,-1.1459 -4.9275,-1.1459 -3.3233,0 -5.0422,1.3178 -1.7189,1.2605 -2.0054,4.0108 z m 9.5687,18.2778 q 3.9535,0 6.4746,-2.0627 2.5211,-2.12 2.5211,-4.5264 v -5.386 q -1.4325,0.6876 -4.3546,1.146 -2.8649,0.4583 -4.9849,0.8021 -2.12,0.3438 -3.8389,1.6616 -1.7189,1.2606 -1.7189,3.5525 0,2.2919 1.547,3.5524 1.547,1.2605 4.3546,1.2605 z m 22.0021,-27.1589 h 4.4119 v 4.24 q 1.9481,-2.6929 4.0681,-3.8962 2.1773,-1.2032 5.1568,-1.2032 5.5578,0 8.0789,4.5837 2.12,-2.521 4.1827,-3.5524 2.0627,-1.0313 5.0422,-1.0313 4.1827,0 6.4173,2.1773 2.2919,2.12 2.2919,6.1881 v 22.5178 h -4.813 v -20.6843 q 0,-2.8649 -1.4897,-4.4119 -1.4325,-1.6043 -4.0682,-1.6043 -2.9221,0 -4.9848,2.2919 -2.0627,2.2919 -2.0627,5.5578 v 18.8508 h -4.813 v -20.6843 q 0,-2.8649 -1.4897,-4.4119 -1.4325,-1.6043 -4.0681,-1.6043 -2.9222,0 -4.9849,2.2919 -2.0627,2.2919 -2.0627,5.5578 v 18.8508 h -4.813 z m 72.252,16.6162 h -22.1168 q 0.057,4.1254 1.6043,6.4173 2.4638,3.8963 7.2195,3.8963 5.8443,0 7.8497,-6.0163 h 4.813 q -0.9168,4.9276 -4.2973,7.6779 -3.3805,2.7502 -8.5373,2.7502 -6.3027,0 -9.9697,-4.24 -3.6671,-4.2973 -3.6671,-11.6886 0,-7.3914 3.7244,-11.8032 3.7816,-4.4692 10.027,-4.4692 4.24,0 7.4486,2.12 3.266,2.12 4.6984,5.787 1.2033,3.1513 1.2033,9.5686 z m -22.0022,-3.8962 h 16.8454 q 0.057,-0.1146 0.057,-0.3438 0,-3.7243 -2.4065,-6.2454 -2.4065,-2.5783 -5.9016,-2.5783 -3.6097,0 -5.9589,2.521 -2.3492,2.4638 -2.6357,6.6465 z m 55.0627,17.3038 h -5.4433 l -6.0735,-23.5492 -5.787,23.5492 h -5.386 l -8.7092,-30.0238 h 5.2714 l 6.1308,23.3773 5.7297,-23.3773 h 5.8444 l 5.9016,23.3773 5.9589,-23.3773 h 5.3859 z m 23.7784,-30.8832 q 6.4746,0 10.027,4.2973 3.6097,4.24 3.6097,12.0324 0,7.3913 -3.667,11.6313 -3.6097,4.24 -9.9124,4.24 -6.4173,0 -10.0271,-4.24 -3.5524,-4.2973 -3.5524,-11.8605 0,-7.5632 3.6097,-11.8032 3.6098,-4.2973 9.9125,-4.2973 z m 0.057,4.4119 q -4.0108,0 -6.3027,3.1513 -2.2919,3.0941 -2.2919,8.5373 0,5.4432 2.2919,8.5946 2.2919,3.0941 6.3027,3.0941 3.9535,0 6.2454,-3.0941 2.3492,-3.1514 2.3492,-8.4227 0,-5.5578 -2.2919,-8.7092 -2.2346,-3.1513 -6.3027,-3.1513 z m 34.0345,0.6302 q -4.8129,0.1146 -7.2194,2.2346 -2.4065,2.12 -2.4065,8.0216 v 15.5849 h -4.813 v -30.0238 h 4.4119 v 5.4433 q 2.0627,-3.3806 3.9535,-4.813 1.9481,-1.4897 4.24,-1.4897 0.6303,0 1.8335,0.1719 z m 8.7665,-15.9286 v 24.4659 l 12.72,-12.72 h 6.1308 l -10.4281,10.3708 12.2617,19.653 h -5.9017 l -10.1416,-16.2724 -4.6411,4.5838 v 11.6886 h -4.7556 v -41.7697 z"
         id="path15" />
    </g>
  </g>
</svg>
